<svg width="13" height="8" viewBox="0 0 13 8" fill="none" xmlns="http://www.w3.org/2000/svg">
    <path fill-rule="evenodd" clip-rule="evenodd" d="M7.20232 7.54133C7.01922 7.7288 6.77091 7.83411 6.512 7.83411C6.25309 7.83411 6.00478 7.7288 5.82167 7.54133L0.298088 1.88433C0.204831 1.79208 0.130445 1.68174 0.0792721 1.55973C0.0280992 1.43773 0.00116347 1.30651 3.68659e-05 1.17373C-0.00108974 1.04095 0.0236155 0.90927 0.0727106 0.786374C0.121806 0.663477 0.194308 0.551825 0.285986 0.457932C0.377664 0.364039 0.486683 0.289786 0.60668 0.239505C0.726678 0.189224 0.855253 0.163923 0.9849 0.165077C1.11455 0.166231 1.24267 0.193817 1.3618 0.246226C1.48093 0.298635 1.58867 0.374817 1.67874 0.470327L6.512 5.42033L11.3453 0.470327C11.5294 0.288169 11.7761 0.187375 12.0321 0.189653C12.2881 0.191931 12.533 0.2971 12.714 0.482508C12.8951 0.667916 12.9977 0.918729 13 1.18093C13.0022 1.44312 12.9038 1.69573 12.7259 1.88433L7.20232 7.54133Z" fill="black"/>
</svg>