<svg width="8" height="14" viewBox="0 0 8 14" fill="none" xmlns="http://www.w3.org/2000/svg">
    <path d="M6.91363 12.9744L6.91977 12.9806L6.92581 12.9868C6.92979 12.9909 6.93455 12.9942 6.93982 12.9965C6.94508 12.9988 6.95074 12.9999 6.95647 13C6.9622 13 6.96788 12.999 6.97319 12.9968C6.97849 12.9946 6.98331 12.9914 6.98736 12.9874C6.99141 12.9833 6.99462 12.9785 6.99679 12.9732C6.99896 12.9679 7.00005 12.9622 7 12.9565C6.99995 12.9507 6.99876 12.9451 6.9965 12.9398C6.99423 12.9346 6.99095 12.9298 6.98683 12.9258L6.98058 12.9198L6.97443 12.9136L1.81084 7.75004L1.10373 7.04293L1.81084 6.33582L6.96422 1.18244C6.97083 1.17459 6.97445 1.1646 6.97436 1.15427C6.97426 1.14296 6.96973 1.13213 6.96172 1.12413C6.95372 1.11613 6.9429 1.11159 6.93159 1.11149C6.92126 1.1114 6.91127 1.11502 6.90342 1.12164L1.01263 7.01242C1.00454 7.02051 1 7.03149 1 7.04293C1 7.05437 1.00454 7.06534 1.01263 7.07344L6.91363 12.9744Z" stroke="#1D1D1D" stroke-width="2"/>
</svg>