<svg width="16" height="14" viewBox="0 0 16 14" fill="none" xmlns="http://www.w3.org/2000/svg">
    <path d="M14.9136 12.8612L14.9198 12.8673L14.9258 12.8735C14.9298 12.8777 14.9346 12.881 14.9398 12.8832C14.9451 12.8855 14.9507 12.8867 14.9565 12.8867C14.9622 12.8868 14.9679 12.8857 14.9732 12.8835C14.9785 12.8813 14.9833 12.8781 14.9874 12.8741C14.9914 12.87 14.9946 12.8652 14.9968 12.8599C14.999 12.8546 15 12.8489 15 12.8432C14.9999 12.8375 14.9988 12.8318 14.9965 12.8265C14.9942 12.8213 14.9909 12.8165 14.9868 12.8125L14.9806 12.8065L14.9744 12.8003L9.81084 7.63675L9.10373 6.92965L9.81084 6.22254L14.9642 1.06916C14.9708 1.06131 14.9745 1.05132 14.9744 1.04099C14.9743 1.02967 14.9697 1.01885 14.9617 1.01085C14.9537 1.00285 14.9429 0.998312 14.9316 0.998213C14.9213 0.998123 14.9113 1.00174 14.9034 1.00836L9.01263 6.89914C9.00454 6.90723 9 6.91821 9 6.92965C9 6.94109 9.00454 6.95206 9.01263 6.96016L14.9136 12.8612Z" stroke="#1D1D1D" stroke-width="2"/>
    <path d="M6.91363 12.8612L6.91977 12.8673L6.92581 12.8735C6.92979 12.8777 6.93455 12.881 6.93982 12.8832C6.94508 12.8855 6.95074 12.8867 6.95647 12.8867C6.9622 12.8868 6.96788 12.8857 6.97319 12.8835C6.97849 12.8813 6.98331 12.8781 6.98736 12.8741C6.99141 12.87 6.99462 12.8652 6.99679 12.8599C6.99896 12.8546 7.00005 12.8489 7 12.8432C6.99995 12.8375 6.99876 12.8318 6.9965 12.8265C6.99423 12.8213 6.99095 12.8165 6.98683 12.8125L6.98058 12.8065L6.97443 12.8003L1.81084 7.63675L1.10373 6.92965L1.81084 6.22254L6.96422 1.06916C6.97083 1.06131 6.97445 1.05132 6.97436 1.04099C6.97426 1.02967 6.96973 1.01885 6.96172 1.01085C6.95372 1.00285 6.9429 0.998312 6.93158 0.998213C6.92126 0.998123 6.91127 1.00174 6.90342 1.00836L1.01263 6.89914C1.00454 6.90723 1 6.91821 1 6.92965C1 6.94109 1.00454 6.95206 1.01263 6.96016L6.91363 12.8612Z" stroke="#1D1D1D" stroke-width="2"/>
</svg>