<svg width="16" height="14" viewBox="0 0 16 14" fill="none" xmlns="http://www.w3.org/2000/svg">
    <path d="M1.08637 12.8612L1.08023 12.8673L1.07419 12.8735C1.07021 12.8777 1.06545 12.881 1.06018 12.8832C1.05492 12.8855 1.04926 12.8867 1.04353 12.8867C1.0378 12.8868 1.03212 12.8857 1.02681 12.8835C1.02151 12.8813 1.01669 12.8781 1.01264 12.8741C1.00859 12.87 1.00538 12.8652 1.00321 12.8599C1.00104 12.8546 0.999952 12.8489 1 12.8432C1.00005 12.8375 1.00124 12.8318 1.0035 12.8265C1.00577 12.8213 1.00905 12.8165 1.01317 12.8125L1.01942 12.8065L1.02557 12.8003L6.18916 7.63675L6.89627 6.92965L6.18916 6.22254L1.03578 1.06916C1.02917 1.06131 1.02555 1.05132 1.02564 1.04099C1.02574 1.02967 1.03027 1.01885 1.03828 1.01085C1.04628 1.00285 1.0571 0.998312 1.06842 0.998213C1.07874 0.998123 1.08873 1.00174 1.09658 1.00836L6.98737 6.89914C6.99546 6.90723 7 6.91821 7 6.92965C7 6.94109 6.99546 6.95206 6.98737 6.96016L1.08637 12.8612Z" stroke="#1D1D1D" stroke-width="2"/>
    <path d="M9.08637 12.8612L9.08023 12.8673L9.07419 12.8735C9.07021 12.8777 9.06545 12.881 9.06018 12.8832C9.05492 12.8855 9.04926 12.8867 9.04353 12.8867C9.0378 12.8868 9.03212 12.8857 9.02681 12.8835C9.02151 12.8813 9.01669 12.8781 9.01264 12.8741C9.00859 12.87 9.00538 12.8652 9.00321 12.8599C9.00104 12.8546 8.99995 12.8489 9 12.8432C9.00005 12.8375 9.00124 12.8318 9.0035 12.8265C9.00577 12.8213 9.00905 12.8165 9.01317 12.8125L9.01942 12.8065L9.02557 12.8003L14.1892 7.63675L14.8963 6.92965L14.1892 6.22254L9.03578 1.06916C9.02917 1.06131 9.02555 1.05132 9.02564 1.04099C9.02574 1.02967 9.03027 1.01885 9.03828 1.01085C9.04628 1.00285 9.0571 0.998312 9.06842 0.998213C9.07874 0.998123 9.08873 1.00174 9.09658 1.00836L14.9874 6.89914C14.9955 6.90723 15 6.91821 15 6.92965C15 6.94109 14.9955 6.95206 14.9874 6.96016L9.08637 12.8612Z" stroke="#1D1D1D" stroke-width="2"/>
</svg>