<svg width="8" height="14" viewBox="0 0 8 14" fill="none" xmlns="http://www.w3.org/2000/svg">
    <path d="M1.08637 12.9744L1.08023 12.9806L1.07419 12.9868C1.07021 12.9909 1.06545 12.9942 1.06018 12.9965C1.05492 12.9988 1.04926 12.9999 1.04353 13C1.0378 13 1.03212 12.999 1.02681 12.9968C1.02151 12.9946 1.01669 12.9914 1.01264 12.9874C1.00859 12.9833 1.00538 12.9785 1.00321 12.9732C1.00104 12.9679 0.999952 12.9622 1 12.9565C1.00005 12.9507 1.00124 12.9451 1.0035 12.9398C1.00577 12.9346 1.00905 12.9298 1.01317 12.9258L1.01942 12.9198L1.02557 12.9136L6.18916 7.75004L6.89627 7.04293L6.18916 6.33582L1.03578 1.18244C1.02917 1.17459 1.02555 1.1646 1.02564 1.15427C1.02574 1.14296 1.03027 1.13213 1.03828 1.12413C1.04628 1.11613 1.0571 1.11159 1.06842 1.11149C1.07874 1.1114 1.08873 1.11502 1.09658 1.12164L6.98737 7.01242C6.99546 7.02051 7 7.03149 7 7.04293C7 7.05437 6.99546 7.06534 6.98737 7.07344L1.08637 12.9744Z" stroke="#1D1D1D" stroke-width="2"/>
</svg>