<svg width="108" height="108" viewBox="0 0 108 108" fill="none" xmlns="http://www.w3.org/2000/svg">
    <rect width="108" height="108" rx="24" fill="#73BCD3"/>
    <path d="M76.2191 40.6718H69.8405L75.6989 34.8156C75.8642 34.6504 75.9952 34.4542 76.0847 34.2383C76.1741 34.0224 76.2201 33.791 76.2201 33.5573C76.2201 33.3236 76.1741 33.0921 76.0847 32.8762C75.9952 32.6603 75.8642 32.4641 75.6989 32.2989C75.5336 32.1336 75.3375 32.0025 75.1215 31.9131C74.9056 31.8237 74.6742 31.7776 74.4405 31.7776C74.2068 31.7776 73.9754 31.8237 73.7595 31.9131C73.5436 32.0025 73.3474 32.1336 73.1821 32.2989L67.326 38.1572V31.7786C67.326 31.3069 67.1386 30.8545 66.8051 30.5209C66.4715 30.1874 66.0191 30 65.5474 30C65.0756 30 64.6232 30.1874 64.2897 30.5209C63.9561 30.8545 63.7687 31.3069 63.7687 31.7786V39.0199C61.0586 37.4553 57.9082 36.8278 54.8054 37.2346C51.7025 37.6413 48.8203 39.0596 46.605 41.2698C37.6896 50.0274 30.9864 70.8573 30.3327 72.9406C30.0246 73.6021 29.9273 74.3424 30.0542 75.0611C30.181 75.7798 30.5259 76.4421 31.0419 76.9581C31.5579 77.4741 32.2202 77.819 32.9389 77.9458C33.6576 78.0727 34.3979 77.9754 35.0594 77.6673C37.1427 77.0136 57.9993 70.3015 66.7346 61.3906C68.9433 59.1746 70.36 56.2924 70.7655 53.1901C71.171 50.0878 70.5428 46.9383 68.9779 44.229H76.2191C76.6909 44.229 77.1433 44.0416 77.4768 43.7081C77.8104 43.3745 77.9978 42.9221 77.9978 42.4504C77.9978 41.9787 77.8104 41.5263 77.4768 41.1927C77.1433 40.8592 76.6909 40.6718 76.2191 40.6718ZM64.1867 58.9027C62.1991 60.9304 59.4622 62.8602 56.4386 64.6232L50.7959 58.9783C50.6306 58.8131 50.4344 58.682 50.2185 58.5925C50.0026 58.5031 49.7712 58.4571 49.5375 58.4571C49.3038 58.4571 49.0724 58.5031 48.8565 58.5925C48.6405 58.682 48.4444 58.8131 48.2791 58.9783C48.1139 59.1436 47.9828 59.3398 47.8933 59.5557C47.8039 59.7716 47.7579 60.003 47.7579 60.2367C47.7579 60.4704 47.8039 60.7018 47.8933 60.9177C47.9828 61.1336 48.1139 61.3298 48.2791 61.4951L53.1903 66.4063C44.1038 71.1175 33.9989 74.2812 33.8478 74.3279C33.7383 74.3635 33.6326 74.4097 33.5321 74.4657C33.5857 74.3657 33.6296 74.2607 33.6632 74.1522C33.7277 73.9455 39.8884 54.236 47.8923 45.1006L55.4003 52.6086C55.734 52.9423 56.1867 53.1298 56.6587 53.1298C57.1307 53.1298 57.5833 52.9423 57.9171 52.6086C58.2508 52.2749 58.4383 51.8222 58.4383 51.3502C58.4383 50.8782 58.2508 50.4256 57.9171 50.0918L50.469 42.6461C52.6512 41.0935 55.3373 40.4181 57.9943 40.754C60.6512 41.0899 63.0848 42.4125 64.8119 44.4592C66.539 46.506 67.4334 49.1274 67.3176 51.803C67.2018 54.4786 66.0842 57.0128 64.1867 58.9027Z" fill="#F5F5F5"/>
</svg>