<svg width="13" height="13" viewBox="0 0 13 13" fill="none" xmlns="http://www.w3.org/2000/svg">
    <path d="M7.7424 0.813724L8.78416 2.96865C8.86165 3.12729 8.97288 3.26386 9.10875 3.36719C9.24462 3.47053 9.40125 3.53767 9.56583 3.56314L11.7662 3.88812C12.9428 4.06312 13.399 5.62757 12.5288 6.49754L11.0221 7.99699C10.8938 8.12441 10.7975 8.28474 10.7421 8.46307C10.6868 8.64141 10.6741 8.83194 10.7054 9.01696L11.0731 11.2159C11.2775 12.4408 10.0957 13.3958 9.05862 12.8358L6.95564 11.7109C6.81088 11.6344 6.65182 11.5946 6.49063 11.5946C6.32943 11.5946 6.17037 11.6344 6.02561 11.7109L3.92263 12.8358C2.88504 13.3908 1.70373 12.4408 1.90819 11.2159L2.27584 9.01646C2.34075 8.64147 2.22021 8.25648 1.95965 7.99649L0.45242 6.49754C-0.417797 5.63257 0.0384063 4.06262 1.21508 3.88762L3.41542 3.56264C3.58048 3.53876 3.73774 3.47224 3.87384 3.36874C4.00993 3.26524 4.12083 3.12781 4.19709 2.96815L5.23931 0.813724C5.76969 -0.271241 7.21619 -0.271241 7.74194 0.813724" fill="#FCD53F"/>
</svg>