<svg width="64" height="64" viewBox="0 0 64 64" fill="none" xmlns="http://www.w3.org/2000/svg">
    <circle cx="32" cy="32" r="32" fill="#F3FBF6"/>
    <path fill-rule="evenodd" clip-rule="evenodd" d="M20.1025 21.1099C20.8084 20.3992 21.7658 20 22.7642 20H40.3303C41.3286 20 42.286 20.3992 42.992 21.1099C43.6979 21.8206 44.0945 22.7844 44.0945 23.7895V36.421C44.0945 37.4261 43.6979 38.3899 42.992 39.1006C42.286 39.8113 41.3286 40.2105 40.3303 40.2105H26.1105C25.839 40.2105 25.5749 40.2992 25.3577 40.4632L25.3576 40.4632L21.0075 43.7474C20.6273 44.0344 20.1186 44.0806 19.6936 43.8666C19.2685 43.6527 19 43.2153 19 42.7368V23.7895C19 22.7844 19.3966 21.8206 20.1025 21.1099ZM22.7642 22.5263C22.4314 22.5263 22.1123 22.6594 21.8769 22.8963C21.6416 23.1332 21.5094 23.4545 21.5094 23.7895V40.2107L23.852 38.4421C23.852 38.4421 23.852 38.4421 23.8521 38.4421C24.5036 37.9501 25.2961 37.6842 26.1105 37.6842H40.3303C40.6631 37.6842 40.9822 37.5511 41.2175 37.3142C41.4528 37.0773 41.585 36.7561 41.585 36.421V23.7895C41.585 23.4545 41.4528 23.1332 41.2175 22.8963C40.9822 22.6594 40.6631 22.5263 40.3303 22.5263H22.7642Z" fill="#50C878" stroke="#50C878" stroke-linecap="round" stroke-linejoin="round"/>
</svg>