<svg width="22" height="20" viewBox="0 0 22 20" fill="none" xmlns="http://www.w3.org/2000/svg">
    <path fill-rule="evenodd" clip-rule="evenodd" d="M1.19055 0.924926C1.78277 0.332705 2.58599 0 3.42352 0H18.1604C18.9979 0 19.8011 0.332706 20.3933 0.924926C20.9855 1.51715 21.3183 2.32037 21.3183 3.15789V13.6842C21.3183 14.5217 20.9855 15.325 20.3933 15.9172C19.8011 16.5094 18.9979 16.8421 18.1604 16.8421H6.23089C6.00313 16.8421 5.78151 16.916 5.59931 17.0526L5.59927 17.0527L1.9498 19.7895C1.63083 20.0287 1.20409 20.0672 0.847484 19.8889C0.490881 19.7105 0.265625 19.3461 0.265625 18.9474V3.15789C0.265625 2.32037 0.59833 1.51715 1.19055 0.924926ZM3.42352 2.10526C3.14434 2.10526 2.8766 2.21616 2.6792 2.41357C2.48179 2.61098 2.37089 2.87872 2.37089 3.15789V16.8422L4.33615 15.3684C4.33616 15.3684 4.33618 15.3684 4.33619 15.3684C4.8828 14.9584 5.54763 14.7368 6.23089 14.7368H18.1604C18.4395 14.7368 18.7073 14.6259 18.9047 14.4285C19.1021 14.2311 19.213 13.9634 19.213 13.6842V3.15789C19.213 2.87872 19.1021 2.61098 18.9047 2.41357C18.7073 2.21616 18.4395 2.10526 18.1604 2.10526H3.42352Z" fill="#969696"/>
</svg>