<svg width="16" height="15" viewBox="0 0 16 15" fill="none" xmlns="http://www.w3.org/2000/svg">
    <path d="M0.55814 0.56412V0C0.410112 0 0.268147 0.0594338 0.163475 0.165227C0.0588038 0.27102 0 0.414506 0 0.56412H0.55814ZM8.74419 0.56412H9.30233C9.30233 0.414506 9.24352 0.27102 9.13885 0.165227C9.03418 0.0594338 8.89221 0 8.74419 0V0.56412ZM8.74419 5.07708V4.51296C8.59616 4.51296 8.45419 4.57239 8.34952 4.67818C8.24485 4.78398 8.18605 4.92746 8.18605 5.07708H8.74419ZM0.55814 1.12824H8.74419V0H0.55814V1.12824ZM8.18605 0.56412V12.5987H9.30233V0.56412H8.18605ZM1.11628 11.0944V0.56412H0V11.0944H1.11628ZM8.74419 5.64119H12.4651V4.51296H8.74419V5.64119ZM14.8837 8.08571V11.0944H16V8.08571H14.8837ZM9.30233 12.5987V5.07708H8.18605V12.5987H9.30233ZM13.123 13.2636C13.0366 13.3509 12.934 13.4202 12.8212 13.4675C12.7083 13.5147 12.5873 13.539 12.4651 13.539C12.3429 13.539 12.222 13.5147 12.1091 13.4675C11.9962 13.4202 11.8936 13.3509 11.8073 13.2636L11.0184 14.0609C11.4022 14.4488 11.9227 14.6667 12.4655 14.6667C13.0082 14.6667 13.5288 14.4488 13.9126 14.0609L13.123 13.2636ZM11.8073 11.9338C11.8936 11.8464 11.9962 11.7772 12.1091 11.7299C12.222 11.6826 12.3429 11.6583 12.4651 11.6583C12.5873 11.6583 12.7083 11.6826 12.8212 11.7299C12.934 11.7772 13.0366 11.8464 13.123 11.9338L13.9118 11.1365C13.528 10.7486 13.0075 10.5307 12.4647 10.5307C11.922 10.5307 11.4015 10.7486 11.0177 11.1365L11.8073 11.9338ZM4.19274 13.2636C4.10636 13.3509 4.0038 13.4202 3.89092 13.4675C3.77805 13.5147 3.65706 13.539 3.53488 13.539C3.4127 13.539 3.29172 13.5147 3.17884 13.4675C3.06597 13.4202 2.96341 13.3509 2.87702 13.2636L2.08819 14.0609C2.47198 14.4488 2.9925 14.6667 3.53526 14.6667C4.07801 14.6667 4.59853 14.4488 4.98233 14.0609L4.19274 13.2636ZM2.87702 11.9338C2.96341 11.8464 3.06597 11.7772 3.17884 11.7299C3.29172 11.6826 3.4127 11.6583 3.53488 11.6583C3.65706 11.6583 3.77805 11.6826 3.89092 11.7299C4.0038 11.7772 4.10636 11.8464 4.19274 11.9338L4.98158 11.1365C4.59779 10.7486 4.07726 10.5307 3.53451 10.5307C2.99176 10.5307 2.47123 10.7486 2.08744 11.1365L2.87702 11.9338ZM13.123 11.9338C13.3046 12.1173 13.3953 12.3572 13.3953 12.5987H14.5116C14.5116 12.0699 14.3114 11.5396 13.9126 11.1357L13.123 11.9338ZM13.3953 12.5987C13.3953 12.8401 13.3046 13.0801 13.123 13.2636L13.9126 14.0609C14.1029 13.8691 14.2532 13.6412 14.3561 13.3903C14.4591 13.1394 14.5119 12.8703 14.5116 12.5987H13.3953ZM10.9767 12.0345H8.74419V13.1628H10.9767V12.0345ZM11.8073 13.2636C11.7205 13.1765 11.6518 13.0729 11.6051 12.9587C11.5583 12.8446 11.5345 12.7222 11.5349 12.5987H10.4186C10.4186 13.1274 10.6188 13.6577 11.0177 14.0616L11.8073 13.2636ZM11.5349 12.5987C11.5349 12.3572 11.6257 12.1173 11.8073 11.9338L11.0177 11.1365C10.8273 11.3282 10.677 11.5561 10.5741 11.807C10.4711 12.058 10.4183 12.327 10.4186 12.5987H11.5349ZM2.87702 13.2636C2.79032 13.1765 2.72159 13.0729 2.67483 12.9587C2.62808 12.8446 2.60422 12.7222 2.60465 12.5987H1.48837C1.48837 13.1274 1.68856 13.6577 2.08744 14.0616L2.87702 13.2636ZM2.60465 12.5987C2.60465 12.3572 2.69544 12.1173 2.87702 11.9338L2.08819 11.1365C1.8978 11.3282 1.74679 11.5561 1.64385 11.807C1.54091 12.058 1.48807 12.327 1.48837 12.5987H2.60465ZM8.74419 12.0345H5.02326V13.1628H8.74419V12.0345ZM4.19274 11.9338C4.37433 12.1173 4.46512 12.3572 4.46512 12.5987H5.5814C5.5814 12.0699 5.38121 11.5396 4.98233 11.1357L4.19274 11.9338ZM4.46512 12.5987C4.46512 12.8401 4.37433 13.0801 4.19274 13.2636L4.98158 14.0609C5.17197 13.8691 5.32298 13.6412 5.42592 13.3903C5.52886 13.1394 5.5817 12.8703 5.5814 12.5987H4.46512ZM14.8837 11.0944C14.8837 11.6133 14.467 12.0345 13.9535 12.0345V13.1628C14.4963 13.1628 15.0168 12.9449 15.4006 12.557C15.7844 12.1691 16 11.6429 16 11.0944H14.8837ZM12.4651 5.64119C13.1066 5.64119 13.7218 5.89874 14.1753 6.35718C14.6289 6.81561 14.8837 7.43739 14.8837 8.08571H16C16 7.13816 15.6276 6.22941 14.9647 5.55939C14.3017 4.88937 13.4026 4.51296 12.4651 4.51296V5.64119ZM0 11.0944C0 11.6429 0.215614 12.1691 0.599409 12.557C0.983205 12.9449 1.50374 13.1628 2.04651 13.1628V12.0345C1.53302 12.0345 1.11628 11.6133 1.11628 11.0944H0Z" fill="black"/>
</svg>