<svg width="108" height="108" viewBox="0 0 108 108" fill="none" xmlns="http://www.w3.org/2000/svg">
    <rect width="108" height="108" rx="24" fill="#D3A773"/>
    <path d="M64.8 40.8H45V45.2H64.8V40.8Z" fill="#F5F5F5"/>
    <path fill-rule="evenodd" clip-rule="evenodd" d="M73.6 76H40.6C37.9468 76 34 74.2422 34 69.4V38.6C34 33.7578 37.9468 32 40.6 32H69.2C71.6266 32 73.6 33.9734 73.6 36.4V67.2H40.6264C39.61 67.2264 38.4 67.629 38.4 69.4C38.4 71.171 39.61 71.5736 40.6264 71.6H73.6V76ZM38.4 38.6V62.8H69.2V36.4H40.6C39.61 36.4264 38.4 36.829 38.4 38.6Z" fill="#F5F5F5"/>
</svg>