<svg width="31" height="18" viewBox="0 0 31 18" fill="none" xmlns="http://www.w3.org/2000/svg">
    <path d="M29.45 3.06684H1.55C1.13891 3.06684 0.744666 2.90529 0.453985 2.61772C0.163303 2.33014 0 1.94011 0 1.53342C0 1.12673 0.163303 0.736701 0.453985 0.449129C0.744666 0.161556 1.13891 0 1.55 0H29.45C29.8611 0 30.2553 0.161556 30.546 0.449129C30.8367 0.736701 31 1.12673 31 1.53342C31 1.94011 30.8367 2.33014 30.546 2.61772C30.2553 2.90529 29.8611 3.06684 29.45 3.06684ZM24.2833 10.2228H6.71667C6.30558 10.2228 5.91133 10.0613 5.62065 9.77369C5.32997 9.48611 5.16667 9.09608 5.16667 8.68939C5.16667 8.28271 5.32997 7.89267 5.62065 7.6051C5.91133 7.31753 6.30558 7.15597 6.71667 7.15597H24.2833C24.6944 7.15597 25.0887 7.31753 25.3793 7.6051C25.67 7.89267 25.8333 8.28271 25.8333 8.68939C25.8333 9.09608 25.67 9.48611 25.3793 9.77369C25.0887 10.0613 24.6944 10.2228 24.2833 10.2228ZM18.0833 17.3788H12.9167C12.5056 17.3788 12.1113 17.2172 11.8207 16.9297C11.53 16.6421 11.3667 16.2521 11.3667 15.8454C11.3667 15.4387 11.53 15.0486 11.8207 14.7611C12.1113 14.4735 12.5056 14.3119 12.9167 14.3119H18.0833C18.4944 14.3119 18.8887 14.4735 19.1793 14.7611C19.47 15.0486 19.6333 15.4387 19.6333 15.8454C19.6333 16.2521 19.47 16.6421 19.1793 16.9297C18.8887 17.2172 18.4944 17.3788 18.0833 17.3788Z" fill="black"/>
</svg>