<svg width="21" height="21" viewBox="0 0 21 21" fill="none" xmlns="http://www.w3.org/2000/svg">
    <path d="M7.36753 0.568519C5.30433 1.29588 3.52504 2.67645 2.29099 4.50742C1.05694 6.3384 0.433186 8.52328 0.511349 10.7411C0.589512 12.959 1.36547 15.0929 2.72525 16.8295C4.08502 18.5661 5.95695 19.8137 8.06606 20.3892C9.77596 20.8376 11.5674 20.8573 13.2865 20.4466C14.8438 20.0912 16.2835 19.3308 17.4648 18.24C18.6942 17.07 19.5866 15.5816 20.0459 13.9348C20.5453 12.144 20.6341 10.2607 20.3057 8.42959H10.7037V12.4774H16.2645C16.1534 13.1229 15.9152 13.7391 15.5643 14.289C15.2134 14.8388 14.7569 15.3111 14.2222 15.6775C13.5431 16.134 12.7777 16.4411 11.9749 16.5792C11.1698 16.7313 10.344 16.7313 9.53894 16.5792C8.72295 16.4078 7.95103 16.0655 7.27235 15.5742C6.18204 14.7899 5.36337 13.6757 4.93316 12.3905C4.49567 11.0812 4.49567 9.6618 4.93316 8.35254C5.23939 7.43481 5.74564 6.59923 6.41411 5.90815C7.17909 5.10277 8.14758 4.52709 9.21332 4.24425C10.2791 3.96141 11.4009 3.98236 12.4557 4.30478C13.2797 4.56183 14.0332 5.01095 14.6561 5.61633C15.2831 4.98242 15.9091 4.34686 16.5339 3.70967C16.8566 3.36703 17.2083 3.04078 17.5261 2.68994C16.5752 1.79068 15.459 1.09094 14.2415 0.630818C12.0245 -0.187276 9.5986 -0.209261 7.36753 0.568519Z" fill="white"/>
    <path d="M7.36753 0.568519C9.59841 -0.20979 12.0243 -0.188387 14.2415 0.629174C15.4592 1.09242 16.5749 1.79553 17.5245 2.69814C17.2018 3.04898 16.8614 3.37686 16.5323 3.71786C15.9064 4.35287 15.281 4.9857 14.6561 5.61633C14.0332 5.01095 13.2797 4.56183 12.4557 4.30478C11.4012 3.98123 10.2795 3.95907 9.21344 4.24075C8.14741 4.52243 7.17833 5.09705 6.4125 5.90159C5.74403 6.59267 5.23779 7.42825 4.93155 8.34598L1.58732 5.71469C2.78435 3.30237 4.85693 1.45713 7.36753 0.568519Z" fill="#E33629"/>
    <path d="M0.700037 8.32141C0.879785 7.41611 1.17821 6.53937 1.58732 5.71469L4.93155 8.35256C4.49407 9.66182 4.49407 11.0812 4.93155 12.3905C3.81734 13.2648 2.7026 14.1436 1.58732 15.0267C0.563155 12.955 0.250803 10.5945 0.700037 8.32141Z" fill="#F8BD00"/>
    <path d="M10.7037 8.42794H20.3057C20.6341 10.2591 20.5453 12.1424 20.046 13.9332C19.5866 15.5799 18.6942 17.0683 17.4648 18.2383C16.3855 17.3825 15.3014 16.5333 14.2222 15.6775C14.7572 15.3107 15.214 14.8379 15.5649 14.2875C15.9158 13.737 16.1538 13.1202 16.2645 12.4741H10.7037C10.7021 11.1264 10.7037 9.77719 10.7037 8.42794Z" fill="#587DBD"/>
    <path d="M1.5857 15.0266C2.70099 14.1523 3.81573 13.2735 4.92994 12.3904C5.36101 13.6761 6.18084 14.7904 7.27235 15.5742C7.95315 16.0632 8.72674 16.4027 9.54379 16.571C10.3489 16.7231 11.1747 16.7231 11.9798 16.571C12.7825 16.4329 13.548 16.1258 14.227 15.6693C15.3063 16.5251 16.3904 17.3743 17.4696 18.2301C16.2886 19.3215 14.8488 20.0825 13.2913 20.4384C11.5723 20.8491 9.78081 20.8294 8.07091 20.381C6.71854 20.0141 5.45533 19.3672 4.36047 18.4809C3.20162 17.5459 2.25512 16.3677 1.5857 15.0266Z" fill="#319F43"/>
</svg>