<svg width="1440" height="746" viewBox="0 0 1440 746" fill="none" xmlns="http://www.w3.org/2000/svg">
    <g filter="url(#filter0_ddd_303_19654)">
        <g clip-path="url(#clip0_303_19654)">
            <mask id="mask0_303_19654" style="mask-type:alpha" maskUnits="userSpaceOnUse" x="0" y="0" width="1440" height="719">
                <path d="M1440 0H0V637.523C0 656.47 21.4904 671.829 48 671.829H624.915C642.99 671.988 652.189 681.622 662.234 692.14C674.435 704.917 687.884 719 720 719C752.542 719 766.527 704.65 779.069 691.779C789.267 681.315 798.511 671.829 816 671.829H1392C1418.51 671.829 1440 656.47 1440 637.523V0Z" fill="#73D393"/>
            </mask>
            <g mask="url(#mask0_303_19654)">
                <path d="M1440 0H0V637.523C0 656.47 21.4904 671.829 48 671.829H624.915C642.99 671.988 652.189 681.622 662.234 692.14C674.435 704.917 687.884 719 720 719C752.542 719 766.527 704.65 779.069 691.779C789.267 681.315 798.511 671.829 816 671.829H1392C1418.51 671.829 1440 656.47 1440 637.523V0Z" fill="#73D393"/>
                <path d="M288.212 727.005C288.013 727.005 287.832 726.987 287.692 726.974C287.602 726.965 287.513 726.954 287.438 726.954V724.066C287.296 724.186 287.163 724.341 287.06 724.538C287.187 724.298 287.311 724.055 287.438 723.817V723.675C287.462 723.675 287.486 723.675 287.513 723.675C291.544 716.001 295.917 708.39 300.147 701.018C311.792 680.744 323.83 659.779 329.593 636.031C337.283 604.351 332.127 574.533 313.834 544.875C310.756 539.886 307.487 534.875 304.328 530.028C298.062 520.419 291.584 510.486 286.21 500.149C279.493 487.232 277.932 476.769 281.437 468.159C284.915 459.615 293.234 453.276 306.873 448.788C332.989 440.184 354.126 432.064 373.394 423.232C405.407 408.557 424.537 385.388 431.881 352.403L432.846 348.076C438.556 322.493 444.464 296.037 444.87 269.234C445.096 254.448 442.422 239.154 436.206 219.648C432.612 208.366 429.592 195.954 427.235 182.76C424.47 167.274 428.123 151.44 438.731 132.926C449.232 114.603 450.505 96.3708 442.516 78.7357C428.764 48.3805 412.045 17.5006 383.067 -2.7406C375.358 -8.12338 365.15 -10.8235 357.117 -12.5726C329.862 -18.5085 302.434 -17.8723 275.597 -10.6792C262.289 -7.11547 250.865 7.48275 247.817 24.8161C243.948 46.8391 250.97 67.3821 257.763 87.2472C258.544 89.5297 259.322 91.8101 260.089 94.0948C265.769 111.063 270.47 126.496 270.431 143.57C270.38 165.061 263.334 184.439 256.733 200.917C248.259 222.075 236.155 240.123 219.734 256.094C210.855 264.726 202.241 273.954 193.909 282.879C188.517 288.655 182.94 294.626 177.338 300.392C167.154 310.871 155.613 322.749 138.885 327.684C123.799 332.135 111.503 332.911 99.0191 330.205C88.6733 327.959 77.7613 327.196 67.2078 326.46C62.7739 326.149 58.1869 325.83 53.6896 325.406C51.3677 325.183 49.048 324.931 46.7261 324.68C40.6568 324.02 34.382 323.34 28.2449 323.276C27.9848 323.274 27.7268 323.272 27.4688 323.272C1.85795 323.272 -12.6987 336.25 -17.0168 362.926C-18.8533 374.273 -21.3107 385.694 -23.6895 396.74C-25.9327 407.166 -28.2524 417.947 -30.0386 428.614C-36.0686 464.632 -35.3471 494.067 -27.7626 521.248C-20.5827 546.994 -14.3123 574.865 -17.0277 604.197C-18.873 624.113 -25.6047 643.821 -37.0415 662.774C-46.4122 678.301 -55.7304 694.22 -64.7425 709.617L-65.9581 711.691C-67.834 714.894 -69.6005 718.253 -71.3103 721.499C-72.117 723.03 -72.9216 724.562 -73.7437 726.086L-76.6296 724.532C-75.8141 723.019 -75.0139 721.493 -74.2115 719.971C-72.4843 716.691 -70.7003 713.3 -68.7894 710.034L-67.5738 707.959C-58.5573 692.554 -49.2304 676.625 -39.8509 661.08C-28.6744 642.553 -22.0935 623.315 -20.2941 603.896C-17.6268 575.093 -23.8272 547.573 -30.9241 522.129C-38.6397 494.469 -39.3874 464.582 -33.2744 428.072C-31.4772 417.331 -29.1488 406.513 -26.8969 396.047C-24.529 385.045 -22.0803 373.665 -20.2547 362.399C-15.6984 334.258 0.366867 319.99 27.4863 319.99C27.7508 319.99 28.011 319.992 28.2777 319.995C34.5744 320.058 40.9323 320.749 47.0803 321.416C49.3869 321.665 51.6935 321.916 53.9979 322.135C58.4537 322.557 63.0188 322.876 67.4352 323.184C78.1045 323.93 89.1368 324.697 99.7144 326.993C111.628 329.582 123.425 328.821 137.956 324.531C153.859 319.839 165.084 308.289 174.986 298.1C180.568 292.359 186.132 286.397 191.512 280.636C199.871 271.683 208.513 262.426 217.447 253.735C233.534 238.092 245.388 220.413 253.69 199.689C260.177 183.494 267.103 164.467 267.151 143.552C267.191 126.977 262.566 111.815 256.978 95.129C256.215 92.8508 255.437 90.5748 254.661 88.301C247.734 68.0423 240.572 47.0928 244.588 24.2411C247.848 5.69432 260.251 -9.97085 274.749 -13.856C302.096 -21.1824 330.044 -21.8339 357.815 -15.7843C366.147 -13.9696 376.757 -11.1537 384.943 -5.43637C414.57 15.2552 431.556 46.5921 445.5 77.3736C453.95 96.0232 452.63 115.261 441.576 134.549C431.372 152.357 427.839 167.488 430.462 182.174C432.795 195.226 435.777 207.496 439.33 218.644C445.657 238.503 448.377 254.118 448.148 269.276C447.737 296.413 441.792 323.036 436.046 348.78L435.082 353.102C427.605 386.682 407.311 411.277 374.761 426.198C355.379 435.084 334.132 443.247 307.9 451.888C295.233 456.062 287.569 461.783 284.478 469.383C281.358 477.048 282.878 486.614 289.122 498.625C294.421 508.818 300.856 518.685 307.076 528.224C310.248 533.089 313.528 538.115 316.626 543.142C335.402 573.584 340.687 604.217 332.781 636.792C326.906 660.992 314.748 682.165 302.99 702.638C298.615 710.255 294.091 718.134 289.966 726.04C289.548 726.86 288.796 727.005 288.212 727.005Z" fill="#50C878" fill-opacity="0.75"/>
                <path d="M368.012 725.678L364.813 724.952C367.544 712.888 370.285 700.828 373.029 688.766C379.116 661.99 385.413 634.304 391.475 607.045C401.205 563.307 425.268 537.447 465.039 527.989C469.563 526.913 474.084 525.765 478.606 524.618C492.012 521.216 505.878 517.698 519.779 516.121C539.371 513.898 557.804 513.924 574.569 516.189C579.619 516.873 584.726 517.696 589.665 518.496C604.242 520.853 619.321 523.293 634.363 522.247C642.966 521.653 650.573 517.693 655.232 511.384C659.974 504.967 661.343 496.698 659.191 487.48C652.958 460.781 635.406 444.21 616.826 426.667L615.357 425.279C604.423 414.944 592.704 405.042 581.37 395.466C571.375 387.02 561.037 378.283 551.245 369.262C538.321 357.356 530.687 344.364 528.548 330.652C527.079 321.226 526.694 310.883 527.339 298.106C528.341 278.23 533.717 260.8 543.311 246.305C549.633 236.752 557.058 227.756 564.238 219.054C568.655 213.704 573.222 208.168 577.474 202.573C578.653 201.023 579.855 199.475 581.064 197.923C586.688 190.695 592.501 183.222 595.927 175.049C605.906 151.251 602.088 128.17 584.256 104.489L581.058 100.25C563.777 77.3788 545.91 53.7269 539.216 23.8461C534.104 1.01413 541.804 -22.8192 558.836 -36.8752C577.216 -52.0419 598.999 -52.7372 620.064 -53.4106C622.627 -53.4936 625.189 -53.5745 627.747 -53.6816C632.166 -53.8631 636.615 -53.2313 640.913 -52.6213C643.592 -52.2387 646.362 -51.8451 649.057 -51.6615C654.685 -51.281 660.422 -50.9968 665.969 -50.7235C673.558 -50.3518 681.407 -49.9649 689.116 -49.3199C697.745 -48.5984 706.502 -47.6758 714.967 -46.7837C729.804 -45.2205 745.147 -43.6048 760.248 -43.0276C776.449 -42.4067 793.022 -43.4059 809.052 -44.37C812.749 -44.593 816.448 -44.816 820.143 -45.0194C823.314 -45.1943 826.486 -45.3604 829.663 -45.5266C846.616 -46.4142 864.146 -47.3347 881.164 -49.6326C910.597 -53.6073 928.182 -65.2343 936.507 -86.221C943.031 -102.671 950.5 -122.127 956.42 -141.715C961.926 -159.942 967.09 -178.618 972.083 -196.677C976.071 -211.101 980.197 -226.016 984.473 -240.625C997.2 -284.109 1020.55 -322.051 1043.88 -356.576C1055 -373.034 1070.84 -380.746 1089.61 -378.896C1110.25 -376.854 1131.35 -379.362 1152.31 -386.343L1153.34 -383.232C1131.95 -376.104 1110.4 -373.546 1089.29 -375.632C1071.54 -377.396 1057.15 -370.358 1046.6 -354.739C1023.41 -320.435 1000.22 -282.756 987.622 -239.702C983.352 -225.117 979.231 -210.215 975.247 -195.803C970.247 -177.724 965.078 -159.031 959.56 -140.766C953.604 -121.06 946.107 -101.523 939.557 -85.012C927.983 -55.8396 900.94 -48.9919 881.604 -46.3815C864.452 -44.0639 846.854 -43.1413 829.835 -42.2493C826.663 -42.0831 823.493 -41.9169 820.323 -41.742C816.632 -41.5387 812.942 -41.3157 809.249 -41.0949C793.142 -40.1241 776.486 -39.1206 760.124 -39.7481C744.911 -40.3318 729.513 -41.9519 714.622 -43.5217C706.171 -44.4116 697.435 -45.332 688.84 -46.0513C681.186 -46.6919 673.365 -47.0767 665.805 -47.4484C660.243 -47.7238 654.491 -48.0059 648.832 -48.3885C646.016 -48.5787 643.185 -48.981 640.45 -49.3724C636.106 -49.9933 631.995 -50.5792 627.881 -50.4043C625.314 -50.2972 622.738 -50.2163 620.165 -50.1332C598.706 -49.4467 578.436 -48.8017 560.919 -34.3456C544.83 -21.068 537.565 1.49292 542.412 23.129C548.949 52.3167 566.6 75.68 583.671 98.2737L586.874 102.517C605.208 126.867 609.273 151.697 598.949 176.318C595.352 184.892 589.403 192.54 583.651 199.937C582.451 201.48 581.252 203.017 580.083 204.558C575.791 210.204 571.204 215.763 566.766 221.142C559.64 229.776 552.272 238.705 546.046 248.115C536.778 262.114 531.587 278.99 530.614 298.272C529.98 310.817 530.354 320.946 531.789 330.147C533.809 343.109 541.102 355.456 553.466 366.849C563.206 375.821 573.515 384.536 583.485 392.96C594.851 402.567 606.605 412.5 617.607 422.893L619.076 424.28C637.192 441.383 655.925 459.071 662.383 486.733C665.385 499.599 661.585 508.299 657.868 513.332C652.637 520.413 644.154 524.856 634.588 525.516C619.161 526.592 603.899 524.117 589.139 521.734C584.221 520.938 579.136 520.116 574.127 519.438C557.629 517.206 539.467 517.19 520.146 519.379C506.466 520.931 492.712 524.421 479.41 527.796C474.871 528.946 470.337 530.099 465.794 531.179C427.367 540.32 404.102 565.369 394.672 607.758C388.607 635.024 382.312 662.714 376.221 689.494C373.486 701.554 370.742 713.616 368.012 725.678Z" fill="#50C878" fill-opacity="0.75"/>
                <path d="M967.308 285.328C940.718 264.571 909.86 246.724 870.195 229.163C857.158 223.389 844.234 215.628 831.783 206.089C814.758 193.051 810.952 174.339 821.337 154.747C829.584 139.184 837.859 127.011 846.628 117.529C857.665 105.595 869.777 94.2375 881.49 83.2511C888.2 76.9566 895.141 70.4456 901.823 63.8844C906.152 59.632 910.218 55.1456 914.038 50.4428C937.677 26.5439 931.48 0.489162 931.48 0.489162C925.833 -37.0438 887.098 -33.843 887.098 -33.843C869.32 -33.6572 851.226 -33.244 833.438 -31.6982C791.038 -28.012 748.398 -32.1945 706.967 -36.2589C676.905 -39.2105 639.501 -42.877 604.036 -35.216C590.203 -32.2273 573.082 -26.3985 563.396 -7.69869C554.316 9.83142 554.561 28.9248 564.107 47.5174C572.8 64.4529 584.431 81.7053 599.67 100.259C627.78 134.486 626.909 173.075 597.217 208.92C593.651 213.225 589.831 217.514 586.136 221.664C577.454 231.415 568.475 241.499 561.82 252.82C537.118 294.839 541.172 331.213 574.21 364.024C592.356 382.044 611.668 397.964 633.213 415.429C667.035 442.841 687.014 468.667 697.99 499.164L698.077 499.409C699.951 504.614 701.888 509.995 702.207 515.225C702.946 527.396 701.379 534.659 696.964 539.502C692.152 544.782 683.582 547.445 669.987 547.884C650.625 548.483 630.559 545.855 611.931 540.219C584.14 531.81 554.395 523.821 523.082 526.397C496.245 528.612 461.631 533.933 431.894 555.628C417.416 566.191 407.685 581.771 401.272 604.664C388.825 649.095 383.254 688.58 384.247 725.372L388.618 725.252C387.638 688.906 393.154 649.847 405.481 605.842C411.616 583.946 420.829 569.114 434.47 559.159C463.325 538.109 497.174 532.921 523.439 530.756C553.982 528.222 583.274 536.117 610.663 544.404C629.741 550.18 650.312 552.906 670.125 552.253C684.979 551.774 694.535 548.66 700.194 542.447C705.48 536.646 707.387 528.424 706.569 514.96C706.213 509.101 704.168 503.423 702.19 497.929L702.1 497.682C690.84 466.393 670.442 439.975 635.963 412.029C614.511 394.643 595.291 378.799 577.288 360.919C545.87 329.72 542.042 295.086 565.587 255.034C572.023 244.083 580.856 234.164 589.398 224.568C593.117 220.392 596.963 216.072 600.579 211.705C631.304 174.616 632.203 132.984 603.046 97.4798C588.008 79.1692 576.543 62.1725 567.994 45.5169C559.122 28.2361 558.875 10.5267 567.277 -5.69162C574.179 -19.0196 585.8 -26.8074 604.956 -30.9461C637.194 -37.9074 668.699 -35.6227 706.737 -31.8928C748.171 -27.8284 791.012 -23.6218 833.816 -27.3474C851.902 -28.9194 870.363 -29.3107 888.488 -29.49C918.581 -30.1415 925.101 -4.79962 925.101 -4.79962C933.665 20.5248 912.429 45.4164 912.429 45.4164C908.2 50.821 903.65 55.9502 898.753 60.7601C892.111 67.2842 885.189 73.7776 878.494 80.0568C866.725 91.0957 854.556 102.511 843.412 114.555C834.383 124.317 825.895 136.792 817.467 152.694C806.15 174.046 810.506 195.301 829.118 209.554C841.845 219.301 855.068 227.242 868.42 233.153C907.745 250.568 938.315 268.24 964.614 288.77C982.363 302.625 984.613 312.992 973.863 331.434C964.396 347.683 953.497 363.51 942.956 378.816L939.622 383.661C918.157 414.893 893.171 446.414 856.012 465.426C831.175 478.14 816.151 498.836 811.363 526.941C809.353 538.732 802.407 546.369 790.719 549.636C788.216 550.333 785.719 551.057 783.216 551.783C774.488 554.314 765.46 556.931 756.472 558.315C736.933 561.319 721.648 571.156 706.908 590.208C696.085 604.196 684.299 618.569 669.694 627.091C645.391 641.272 619.408 653.607 594.278 665.536C586.576 669.194 578.873 672.851 571.206 676.562C567.537 678.339 563.862 680.104 560.189 681.868C534.58 694.166 508.099 706.882 484.178 723.516L486.675 727.108C510.31 710.673 536.629 698.034 562.082 685.81C565.76 684.043 569.439 682.277 573.11 680.499C580.769 676.791 588.46 673.14 596.154 669.489C621.365 657.519 647.433 645.144 671.898 630.867C687.18 621.951 699.282 607.215 710.367 592.886C724.368 574.789 738.791 565.46 757.137 562.638C766.403 561.212 775.57 558.554 784.433 555.982C786.922 555.261 789.405 554.542 791.893 553.844C805.162 550.138 813.385 541.087 815.67 527.674C820.215 501.003 834.459 481.367 858.002 469.32C896.027 449.864 921.432 417.843 943.223 386.136L946.553 381.296C957.142 365.921 968.089 350.024 977.638 333.636C989.394 313.478 986.594 300.384 967.308 285.328Z" fill="#50C878" fill-opacity="0.75"/>
                <path d="M336.229 726.008L332.081 724.624C332.193 724.287 332.296 723.948 332.398 723.605C332.645 722.785 332.901 721.937 333.288 721.084C347.803 688.971 363.379 650.585 368.836 609.366C371.696 587.774 375.46 565.648 380.028 543.601C384.018 524.341 396.452 511.829 415.989 507.415C426.859 504.962 437.933 502.598 448.644 500.311L462.691 497.312C490.29 491.432 518.828 485.354 544.471 471.963C556.284 465.798 559.651 457.065 554.483 446.009C552.078 440.865 548.56 435.565 543.728 429.806C534.946 419.34 525.697 408.944 516.755 398.889L511.591 393.08C498.007 377.773 490.484 361.231 489.231 343.913C488.062 327.732 488.766 310.383 491.319 292.35C497.974 245.388 506.154 203.797 538.96 170.436C552.576 156.589 554.31 136.534 543.597 116.789C533.986 99.0711 525.341 83.0714 516.904 66.6804C514.28 61.5862 511.49 56.4395 508.795 51.4634C499.341 34.0186 489.564 15.9812 484.649 -3.9014C481.098 -18.2635 479.279 -33.3668 477.84 -47.5452C475.661 -69.0479 467.184 -82.2272 451.167 -89.0289L449.794 -89.6127C438.792 -94.2849 427.415 -99.1167 415.855 -102.147C393.791 -107.932 368.724 -115.746 350.501 -135.395C329.56 -157.973 308.073 -182.373 284.81 -209.991C275.19 -221.412 264.281 -239.428 266.935 -260.41C268.677 -274.184 272.317 -287.868 275.838 -301.104C277.936 -308.993 280.105 -317.15 281.841 -325.211C284.804 -338.983 287.32 -353.115 289.754 -366.782C290.845 -372.921 291.938 -379.058 293.075 -385.189L297.375 -384.393C296.24 -378.274 295.149 -372.145 294.059 -366.017C291.621 -352.313 289.098 -338.141 286.118 -324.293C284.36 -316.129 282.178 -307.921 280.066 -299.983C276.583 -286.889 272.982 -273.347 271.275 -259.863C268.819 -240.453 279.1 -223.561 288.155 -212.809C311.374 -185.246 332.816 -160.896 353.709 -138.37C371.132 -119.583 395.494 -112.005 416.964 -106.38C428.834 -103.269 440.36 -98.3733 451.504 -93.6399L452.877 -93.0562C470.521 -85.5679 479.837 -71.2473 482.193 -47.9912C483.615 -33.9702 485.41 -19.0528 488.895 -4.95523C493.676 14.3852 503.318 32.1733 512.641 49.3755C515.347 54.3734 518.148 59.5398 520.793 64.6755C529.213 81.0272 537.843 97.005 547.443 114.699C559.12 136.226 557.115 158.205 542.077 173.496C510.205 205.909 502.194 246.776 495.65 292.96C493.138 310.685 492.447 327.719 493.595 343.592C494.776 359.93 501.932 375.602 514.864 390.172L520.026 395.979C528.99 406.056 538.258 416.476 547.08 426.992C552.159 433.046 555.875 438.659 558.444 444.153C564.612 457.341 560.368 468.594 546.496 475.837C520.323 489.504 491.49 495.648 463.603 501.584L449.558 504.583C438.86 506.866 427.797 509.227 416.953 511.676C398.959 515.738 387.977 526.777 384.309 544.484C379.763 566.426 376.016 588.447 373.169 609.935C367.638 651.718 351.918 690.477 337.272 722.881C337.005 723.474 336.799 724.149 336.583 724.866C336.469 725.251 336.353 725.631 336.229 726.008Z" fill="#50C878" fill-opacity="0.75"/>
                <path d="M770.174 436.51C757.135 436.51 743.728 432.793 728.415 425.106C717.873 419.817 707.763 413.322 697.986 407.04C694.706 404.935 691.429 402.829 688.134 400.768C663.909 385.603 639.271 367.898 623.145 341.253C606.948 314.492 605.86 288.903 619.909 265.195C626.512 254.053 634.033 243.237 641.305 232.78C644.851 227.681 648.515 222.41 652.022 217.174C662.527 201.489 672.797 182.498 669.307 160.552C666.072 140.186 657.919 119.595 644.385 97.6025C640.159 90.7373 635.058 84.1761 630.128 77.8336C619.494 64.1558 608.499 50.0145 605.066 31.5224L608.291 30.9255C611.577 48.6327 622.325 62.4548 632.717 75.8221C637.704 82.2368 642.861 88.868 647.179 95.8862C660.942 118.252 669.242 139.237 672.548 160.04C676.214 183.106 665.608 202.788 654.748 218.999C651.226 224.26 647.551 229.542 643.998 234.654C636.759 245.065 629.273 255.83 622.729 266.869C609.345 289.454 610.429 313.911 625.952 339.554C641.722 365.613 665.995 383.041 689.874 397.989C693.182 400.059 696.468 402.171 699.757 404.283C709.462 410.519 719.499 416.964 729.884 422.178C750.771 432.658 767.905 435.513 785.45 431.444C794.771 429.28 804.408 427.942 813.726 426.65C822.723 425.401 832.028 424.109 840.97 422.078C881.464 412.884 905.529 388.631 914.545 347.939C917.967 332.49 918.033 311.668 887.905 287.578C875.178 277.399 860.195 269.482 845.706 261.823L843.867 260.853C814.107 245.106 787.683 230.27 765.681 208.135C747.185 189.523 746.518 172.406 763.521 152.635C778.778 134.893 794.688 117.205 810.071 100.101C819.212 89.9415 828.663 79.4318 837.875 69.0291C839.11 67.6342 840.369 66.2459 841.631 64.8554C847.033 58.9042 852.615 52.7496 856.323 45.8648C860.702 37.7294 861.896 31.8022 860.083 27.2153C858.306 22.7158 853.437 19.1826 845.197 16.4147C836.701 13.5572 827.441 12.241 818.484 10.9686C815.261 10.5094 812.041 10.0525 808.846 9.52776C787.739 6.04928 770.019 3.21141 752.15 0.664314C738.739 -1.24655 725.674 -2.73326 713.316 -3.75428C711.119 -3.93575 708.917 -4.13035 706.716 -4.32275C695.423 -5.31535 683.75 -6.34291 672.408 -5.73292C659.399 -5.03548 646.449 -2.82072 633.919 0.847966C620.13 4.88396 611.266 15.1139 608.284 30.4336L605.064 29.8083C608.295 13.2074 617.952 2.10512 632.994 -2.29817C645.769 -6.03901 658.968 -8.29534 672.231 -9.0059C683.794 -9.62901 695.594 -8.59049 707 -7.58696C709.197 -7.39456 711.392 -7.20215 713.585 -7.02069C726.006 -5.9931 739.135 -4.49985 752.609 -2.58024C770.507 -0.0287762 788.249 2.8113 809.378 6.29415C812.546 6.81668 815.744 7.27144 818.943 7.7262C828.045 9.01833 837.459 10.3564 846.24 13.3101C855.448 16.406 860.973 20.5622 863.129 26.015C865.326 31.5705 864.078 38.3722 859.207 47.4237C855.313 54.6605 849.591 60.9659 844.058 67.0636C842.805 68.4454 841.552 69.8228 840.328 71.2067C831.108 81.6203 821.652 92.1344 812.506 102.301C797.134 119.392 781.237 137.064 766.003 154.78C750.158 173.206 750.755 188.476 768.006 205.831C789.679 227.638 815.878 242.341 845.398 257.96L847.237 258.931C861.861 266.659 876.98 274.651 889.951 285.025C906.517 298.274 924.648 317.481 917.744 348.656C908.555 390.131 882.966 415.912 841.692 425.285C832.614 427.345 823.241 428.648 814.175 429.905C804.929 431.191 795.365 432.516 786.189 434.647C780.846 435.88 775.54 436.51 770.174 436.51Z" fill="#50C878" fill-opacity="0.75"/>
                <path d="M568.858 727.199L566.632 723.432C571.665 720.459 576.744 717.334 581.655 714.311C592.667 707.533 604.056 700.524 615.825 694.664C635.235 684.998 655.328 675.938 674.758 667.175C682.544 663.664 690.329 660.153 698.091 656.595C704.346 653.729 710.57 650.784 716.795 647.839C731.365 640.948 746.431 633.82 761.694 627.849C783.091 619.482 805.88 617.633 827.92 615.846C837.733 615.053 847.882 614.228 857.729 612.838C875.386 610.343 893.218 606.672 910.461 603.12C914.349 602.319 918.236 601.521 922.123 600.73C930.372 599.057 935.456 593.622 935.72 586.191C936.354 568.328 936.031 554.712 934.671 542.038C929.666 495.471 937.224 458.583 958.458 425.951C976.401 398.375 1001.65 376.122 1040.31 353.802C1066.04 338.952 1090.32 329.173 1114.56 323.906C1121.2 322.463 1127.99 321.204 1134.55 319.984C1144.43 318.149 1154.65 316.254 1164.48 313.709L1169.02 312.528C1203.32 303.625 1238.77 294.423 1276.62 298.641C1323.51 303.879 1357.12 316.584 1385.61 339.838C1401.83 353.081 1420.91 361.065 1442.32 363.571C1470.11 366.826 1490.53 359.183 1504.75 340.21C1509.1 334.409 1514.05 327.618 1517.84 320.452C1524.8 307.307 1535.71 296.8 1552.18 287.385L1554.35 291.181C1538.63 300.164 1528.26 310.117 1521.71 322.496C1517.77 329.942 1512.69 336.897 1508.24 342.831C1493.22 362.875 1470.89 371.31 1441.82 367.913C1419.56 365.309 1399.71 357.001 1382.84 343.222C1355.04 320.532 1322.13 308.123 1276.13 302.987C1239.11 298.85 1205.6 307.55 1170.12 316.761L1165.57 317.939C1155.6 320.526 1145.31 322.435 1135.36 324.282C1128.82 325.495 1122.07 326.748 1115.49 328.178C1091.7 333.347 1067.83 342.967 1042.5 357.587C1004.46 379.544 979.674 401.362 962.122 428.332C941.47 460.074 934.126 496.054 939.019 541.568C940.403 554.456 940.733 568.265 940.091 586.342C939.758 595.787 933.206 602.945 922.996 605.015C919.113 605.8 915.23 606.603 911.347 607.401C894.037 610.966 876.138 614.653 858.343 617.167C848.367 618.577 838.157 619.401 828.277 620.206C806.553 621.968 784.088 623.789 763.29 631.923C748.165 637.837 733.171 644.931 718.669 651.792C712.427 654.746 706.187 657.697 699.914 660.572C692.144 664.132 684.35 667.647 676.557 671.163C657.165 679.908 637.111 688.953 617.775 698.582C606.181 704.356 594.878 711.311 583.948 718.036C579.018 721.069 573.924 724.204 568.858 727.199Z" fill="#50C878" fill-opacity="0.75"/>
                <path d="M-88.9494 726.547L-92.5591 724.083C-89.3714 719.413 -86.2078 714.728 -83.0441 710.041C-76.0216 699.634 -68.7585 688.875 -61.3162 678.485C-48.7906 660.994 -36.1033 642.004 -30.5937 619.128C-24.4829 593.747 -25.5957 567.196 -34 537.962C-45.4434 498.155 -48.0276 460.712 -41.8993 423.494C-36.534 390.917 -39.2276 362.526 -50.1309 336.694C-58.533 316.789 -54.1057 302.716 -35.3337 289.628C-24.0434 281.758 -12.4689 279.873 1.09299 283.688C10.5752 286.36 20.0289 289.589 29.17 292.715C46.8335 298.756 65.1004 305.001 84.1238 307.338C112.376 310.799 134.497 305.897 153.724 291.883C159.649 287.56 165.305 282.577 170.777 277.757C172.1 276.591 173.425 275.426 174.752 274.267C198.771 253.324 223.608 231.666 236.803 199.597C245.319 178.903 249.475 159.482 249.512 140.225C249.549 120.845 243.196 101.957 237.59 85.2926C223.409 43.1399 223.035 8.7137 236.414 -23.0473C245.745 -45.2037 250.865 -48.0154 275.534 -44.5544C289.107 -42.6479 303.014 -41.3099 316.464 -40.0155C327.46 -38.9574 338.831 -37.862 349.988 -36.4605C370.076 -33.9397 395.228 -28.0235 411.535 -4.4656C415.547 1.33259 419.625 7.098 423.703 12.8634C436.272 30.6384 449.27 49.019 460.184 68.2173C474.922 94.1407 475.13 118.807 460.798 141.53C450.522 157.822 446.364 176.894 448.773 196.68C449.361 201.51 450.345 206.416 451.296 211.163C452.389 216.613 453.52 222.247 454.088 227.901C454.443 231.413 454.849 234.941 455.258 238.474C456.773 251.584 458.343 265.141 457.09 278.321C455.098 299.275 451.46 320.386 447.942 340.802C446.666 348.214 445.387 355.623 444.184 363.041C438.268 399.479 420.392 422.7 389.528 434.028C367.376 442.156 346.081 452.633 326.366 462.745C308.983 471.661 300.668 481.307 309.615 504.236C313.154 513.307 317.59 522.566 322.801 531.755C345.169 571.203 349.644 609.307 336.485 648.241C329.937 667.615 320.172 685.527 310.727 702.847C306.56 710.491 302.251 718.395 298.292 726.298L294.382 724.337C298.377 716.368 302.706 708.431 306.89 700.755C316.244 683.597 325.916 665.857 332.344 646.842C345.084 609.156 340.718 572.216 318.998 533.913C313.686 524.542 309.16 515.093 305.544 505.825C295.476 480.022 305.789 468.388 324.372 458.856C344.209 448.681 365.651 438.134 388.024 429.926C417.677 419.04 434.153 397.566 439.868 362.344C441.075 354.915 442.354 347.488 443.633 340.063C447.138 319.728 450.761 298.699 452.737 277.91C453.946 265.192 452.405 251.866 450.916 238.979C450.505 235.424 450.094 231.876 449.737 228.341C449.191 222.901 448.082 217.372 447.009 212.026C446.043 207.199 445.041 202.21 444.431 197.214C441.899 176.415 446.279 156.355 457.099 139.201C470.501 117.95 470.258 94.7966 456.382 70.3839C445.575 51.3715 432.64 33.0805 420.13 15.393C416.044 9.61448 411.96 3.83815 407.937 -1.97097C395.982 -19.2431 377.94 -28.5394 349.439 -32.1163C338.345 -33.509 327.007 -34.6 316.042 -35.656C302.546 -36.9547 288.591 -38.2993 274.922 -40.2167C252.208 -43.4066 248.989 -41.64 240.439 -21.3442C227.498 9.37833 227.907 42.8207 241.729 83.9043C247.442 100.888 253.917 120.139 253.88 140.24C253.843 160.074 249.578 180.038 240.843 201.269C227.255 234.29 202.025 256.293 177.623 277.571C176.3 278.723 174.984 279.884 173.663 281.045C168.117 285.929 162.382 290.984 156.295 295.42C136.393 309.931 112.61 315.25 83.586 311.684C64.11 309.292 45.6266 302.974 27.7511 296.861C18.6668 293.754 9.26992 290.542 -0.0963821 287.906C-12.3027 284.469 -22.7054 286.159 -32.8391 293.223C-50.0238 305.204 -53.7449 316.916 -46.108 335.002C-34.8746 361.616 -32.087 390.797 -37.59 424.211C-43.609 460.78 -41.0619 497.596 -29.8022 536.762C-21.1837 566.743 -20.0555 594.022 -26.3478 620.162C-32.0411 643.803 -44.9886 663.2 -57.7656 681.039C-65.1707 691.38 -72.4163 702.115 -79.4235 712.496C-82.5872 717.181 -85.7552 721.873 -88.9494 726.547Z" fill="#50C878" fill-opacity="0.75"/>
                <path d="M111.173 245.671C97.469 245.671 84.4143 238.744 72.3085 225.036C55.841 206.388 36.4831 184.265 17.7811 161.56C8.06934 149.771 -1.45438 137.516 -10.6633 125.666C-17.3928 117.009 -24.3498 108.055 -31.3198 99.3625C-58.2097 65.8306 -83.2805 46.1141 -112.61 35.4338C-113.964 34.9419 -114.432 33.6257 -114.74 32.7555C-114.81 32.5587 -114.873 32.362 -114.954 32.198L-111.043 30.2434C-110.89 30.5517 -110.752 30.919 -110.621 31.2907C-110.59 31.3737 -110.564 31.4568 -110.535 31.5356C-80.6613 42.5504 -55.1532 62.6494 -27.9092 96.6252C-20.9194 105.342 -13.9493 114.308 -7.21102 122.979C1.98037 134.805 11.4844 147.036 21.1568 158.776C39.8173 181.429 59.1445 203.518 75.588 222.137C87.895 236.07 101.068 242.441 114.778 241.116C136.419 238.998 156.168 228.14 173.471 208.846C199.099 180.27 197.024 145.145 192.704 111.617C191.093 99.1089 188.198 86.5002 185.402 74.3048C184.184 68.9964 182.966 63.688 181.842 58.3686C181.105 54.8704 180.406 51.3657 179.706 47.861C176.26 30.5976 172.699 12.7461 164.349 -3.42194C145.468 -39.9886 118.558 -71.4937 92.5344 -101.963C88.3913 -106.814 84.246 -111.668 80.1291 -116.543C66.2917 -132.928 56.6609 -146.066 48.8993 -159.144C46.3194 -163.489 43.7899 -167.857 41.2624 -172.223C28.4505 -194.349 15.199 -217.231 -4.13046 -235.529C-15.4535 -246.248 -25.2003 -258.892 -34.6234 -271.12C-36.073 -273.003 -37.5225 -274.883 -38.9743 -276.752C-43.277 -282.295 -47.2671 -288.215 -51.1259 -293.939C-57.0597 -302.746 -63.1968 -311.852 -70.4729 -319.521C-79.2467 -328.768 -89.6909 -336.844 -99.7918 -344.653C-104.248 -348.099 -108.854 -351.661 -113.275 -355.288L-110.501 -358.668C-106.128 -355.08 -101.545 -351.538 -97.1157 -348.112C-86.8836 -340.202 -76.3017 -332.021 -67.2983 -322.528C-59.7751 -314.596 -53.5331 -305.336 -47.4988 -296.379C-43.6814 -290.714 -39.7329 -284.857 -35.5198 -279.43C-34.0637 -277.557 -32.612 -275.672 -31.1581 -273.785C-21.8355 -261.69 -12.1981 -249.182 -1.12205 -238.699C18.6665 -219.966 32.0798 -196.804 45.0492 -174.405C47.5678 -170.054 50.0909 -165.699 52.6599 -161.368C60.2924 -148.506 69.7942 -135.549 83.4698 -119.355C87.5802 -114.486 91.7211 -109.639 95.8577 -104.794C122.044 -74.1349 149.117 -42.4329 168.232 -5.41803C176.864 11.2966 180.487 29.4563 183.991 47.0149C184.687 50.5043 185.384 53.9937 186.119 57.4743C187.236 62.7697 188.447 68.0519 189.661 73.3363C192.483 85.6323 195.4 98.3503 197.037 111.068C201.489 145.602 203.585 181.823 176.722 211.778C158.665 231.912 137.967 243.252 115.198 245.478C113.853 245.603 112.509 245.671 111.173 245.671Z" fill="#50C878" fill-opacity="0.75"/>
                <path d="M325.636 725.444L322.656 724.078C324.28 720.538 325.88 716.985 327.481 713.432C330.937 705.758 334.51 697.822 338.294 690.135C354.88 656.443 363.518 619.544 364.708 577.328C364.999 566.921 364.922 556.317 364.845 546.061C364.81 541.297 364.775 536.535 364.775 531.771C364.775 509.239 374.323 496.127 393.963 491.687C410.153 488.024 426.988 486.17 443.267 484.373C449.109 483.728 454.947 483.083 460.767 482.36C478.688 480.127 494.109 475.064 507.913 466.88C514.614 462.91 518.967 457.328 520.507 450.741C522.044 444.162 520.539 436.925 516.27 430.36C511.018 422.281 506.225 415.042 500.77 408.275C473.78 374.791 474.3 336.548 478.367 303.558C479.567 293.833 481.273 284.028 482.921 274.545C484.375 266.183 485.879 257.536 487.025 249.002C487.506 245.41 487.889 241.717 488.256 238.147C489.511 225.971 490.81 213.38 496.361 201.887C502.404 189.378 509.798 174.826 518.823 161.723C527.663 148.89 530.424 134.368 526.6 120.832C518.609 92.5496 504.002 66.9257 489.723 43.1054C481.498 29.3817 473.999 15.1049 467.433 0.672821C464.368 -6.06769 461.784 -13.1405 459.282 -19.9838C455.988 -28.998 452.581 -38.3206 448.077 -46.8233C435.381 -70.7857 410.304 -79.0501 388.178 -86.3394C366.673 -93.4253 346.342 -101.443 333.955 -121.47C316.453 -149.765 296.607 -175.8 272.193 -206.186C259.496 -221.987 253.775 -240.05 256.081 -257.054C257.981 -271.044 262.166 -284.73 266.012 -296.272C277.083 -329.511 283.73 -357.7 286.924 -384.981L290.182 -384.598C286.959 -357.088 280.267 -328.691 269.123 -295.236C265.327 -283.838 261.195 -270.333 259.332 -256.61C257.148 -240.509 262.623 -223.329 274.748 -208.239C299.24 -177.759 319.155 -151.632 336.744 -123.192C348.553 -104.103 368.298 -96.3397 389.208 -89.4505C411.922 -81.9666 437.666 -73.4858 450.977 -48.356C455.585 -39.6543 459.033 -30.2268 462.363 -21.1075C464.842 -14.3233 467.405 -7.30954 470.42 -0.684906C476.935 13.6335 484.375 27.801 492.537 41.4175C506.927 65.428 521.657 91.2706 529.757 119.94C533.852 134.431 530.929 149.932 521.525 163.584C512.625 176.507 505.303 190.92 499.314 203.314C494.013 214.29 492.744 226.59 491.518 238.486C491.148 242.078 490.764 245.799 490.276 249.44C489.124 258.036 487.613 266.714 486.153 275.107C484.511 284.55 482.814 294.314 481.622 303.958C477.639 336.268 477.103 373.685 503.324 406.216C508.875 413.103 513.716 420.414 519.02 428.569C523.78 435.893 525.443 444.029 523.699 451.484C521.952 458.961 517.07 465.262 509.584 469.701C495.386 478.12 479.55 483.322 461.171 485.611C455.336 486.337 449.483 486.984 443.626 487.629C427.436 489.415 410.693 491.262 394.685 494.881C376.516 498.991 368.053 510.71 368.053 531.767C368.053 536.522 368.088 541.277 368.123 546.03C368.199 556.315 368.276 566.949 367.983 577.413C366.783 620.108 358.033 657.451 341.235 691.575C337.475 699.214 333.913 707.122 330.47 714.772C328.865 718.339 327.262 721.898 325.636 725.444Z" fill="#50C878" fill-opacity="0.75"/>
                <path d="M974.405 725.246C973.594 722.642 972.752 720.045 971.91 717.45C970.08 711.811 968.189 705.978 966.659 700.132L964.394 691.507C959.109 671.397 953.644 650.604 948.939 629.985C947.032 621.62 947.968 614.574 951.645 609.608C955.036 605.03 960.725 602.332 968.1 601.803C990.969 600.165 1007.88 600.876 1022.92 604.11C1042.16 608.244 1061.44 613.627 1080.09 618.835C1095.28 623.076 1110.99 627.464 1126.57 631.144C1156.4 638.186 1184.91 637.891 1211.32 630.269C1222.14 627.143 1233.12 623.841 1243.73 620.647C1253.88 617.591 1264.38 614.429 1274.74 611.427C1315.33 599.665 1349.53 597.852 1382.37 605.712L1388.91 607.284C1407.42 611.744 1426.57 616.358 1445.62 618.769C1471.8 622.081 1491.82 613.832 1505.21 594.26C1519.94 572.725 1520.71 547.921 1521.46 523.932C1521.73 515.243 1521.58 506.371 1521.44 497.79C1521.24 485.914 1521.03 473.635 1521.93 461.599C1523.38 442.075 1528.17 418.085 1552.52 405.729L1554.01 408.655C1531.25 420.199 1526.67 442.021 1525.2 461.842C1524.31 473.727 1524.52 485.931 1524.72 497.733C1524.86 506.352 1525.01 515.268 1524.74 524.033C1524.01 547.352 1523.19 573.783 1507.92 596.112C1493.78 616.782 1472.68 625.51 1445.21 622.02C1425.98 619.587 1406.74 614.952 1388.14 610.47L1381.61 608.9C1349.34 601.171 1315.67 602.977 1275.65 614.578C1265.3 617.573 1254.82 620.73 1244.67 623.785C1234.05 626.983 1223.07 630.291 1212.22 633.42C1185.27 641.199 1156.2 641.507 1125.82 634.334C1110.17 630.639 1094.43 626.246 1079.21 621.992C1060.61 616.797 1041.37 611.427 1022.23 607.315C1007.5 604.151 990.881 603.465 968.334 605.074C961.851 605.54 957.122 607.722 954.278 611.561C951.186 615.734 950.445 621.854 952.135 629.257C956.827 649.824 962.286 670.59 967.566 690.674L969.831 699.301C971.338 705.058 973.216 710.843 975.03 716.442C975.876 719.048 976.72 721.658 977.536 724.276L974.405 725.246Z" fill="#50C878" fill-opacity="0.75"/>
                <path d="M122.149 212.105C112.629 212.105 103.283 208.456 94.2704 201.213C71.3576 182.791 50.3752 162.893 31.9028 142.066C21.2203 130.024 11.7534 116.619 2.59482 103.656C-4.23313 93.9904 -11.2928 83.9944 -18.792 74.6587C-45.8393 40.9846 -76.7476 21.4846 -113.284 15.0415L-112.713 11.8101C-75.3615 18.3975 -43.8016 38.2823 -16.234 72.6035C-8.6736 82.0179 -1.5811 92.0555 5.27528 101.763C14.3814 114.654 23.7958 127.984 34.3559 139.888C52.708 160.576 73.557 180.349 96.3256 198.653C106.726 207.018 117.54 210.245 128.447 208.247C140.986 205.949 153.278 196.403 161.33 182.71C170.161 167.69 173.134 150.109 170.169 130.459C169.52 126.156 168.842 121.853 168.167 117.55C166.022 103.916 163.803 89.8188 162.526 75.8459C160.558 54.2754 154.356 32.6328 143.562 9.68054C127.912 -23.6065 111.728 -58.0262 88.1837 -87.9179C85.3239 -91.5494 82.4489 -95.17 79.5738 -98.7949C68.3273 -112.967 56.7003 -127.624 46.0878 -142.646C41.9337 -148.528 38.8838 -155.233 35.9322 -161.716C34.1088 -165.723 32.222 -169.869 30.1056 -173.743C15.092 -201.225 -5.20606 -224.184 -24.905 -244.9C-38.6593 -259.364 -51.0603 -275.517 -63.0567 -291.139C-66.0105 -294.984 -68.9621 -298.83 -71.9355 -302.652C-83.2258 -317.167 -96.8598 -327.528 -113.616 -334.328L-112.385 -337.367C-95.0779 -330.346 -81.0001 -319.649 -69.349 -304.666C-66.3734 -300.839 -63.4175 -296.987 -60.4594 -293.135C-48.5175 -277.581 -36.1669 -261.498 -22.5328 -247.158C-2.67863 -226.281 17.7856 -203.127 32.9807 -175.313C35.1539 -171.333 37.0669 -167.134 38.9144 -163.071C41.8004 -156.727 44.7869 -150.165 48.7639 -144.535C59.3239 -129.587 70.9225 -114.967 82.1406 -100.83C85.0178 -97.2055 87.8951 -93.5805 90.757 -89.9446C114.534 -59.7599 130.798 -25.1676 146.526 8.28568C157.484 31.5899 163.785 53.5933 165.79 75.5486C167.056 89.4165 169.264 103.459 171.402 117.041C172.08 121.35 172.758 125.66 173.41 129.971C176.49 150.385 173.377 168.687 164.155 184.372C155.628 198.876 142.501 209.007 129.036 211.469C126.731 211.893 124.435 212.105 122.149 212.105Z" fill="#50C878" fill-opacity="0.75"/>
                <path d="M510.863 726.647L508.944 723.986C537.25 703.537 569.267 689.221 600.23 675.375C607.948 671.922 615.93 668.352 623.724 664.747C648.887 653.102 671.393 641.81 692.524 630.22C701.779 625.145 710.708 619.026 719.342 613.107C724.386 609.649 729.603 606.074 734.848 602.729C753.099 591.091 773.867 587.516 793.953 584.062C800.665 582.905 807.609 581.712 814.328 580.234C846.664 573.124 858.466 560.025 861.102 528.319C862.814 507.713 868.844 492.506 880.073 480.464C894.772 464.701 907.457 449.816 918.857 434.966C923.579 428.814 927.814 422.06 931.912 415.527C936.932 407.519 942.124 399.239 948.3 391.911C959.613 378.489 971.996 365.624 983.971 353.182C989.727 347.202 995.679 341.017 1001.43 334.854C1002.63 333.566 1003.87 332.293 1005.1 331.019C1009.28 326.703 1013.6 322.241 1016.62 317.232C1024.48 304.192 1023.01 291.452 1012.78 283.982C1008.2 280.634 1003.01 276.839 997.452 274.182C986.531 268.948 975.335 263.81 964.506 258.836C956.222 255.034 947.938 251.23 939.691 247.349C932.056 243.757 924.358 239.982 916.913 236.328C910.785 233.324 904.661 230.318 898.5 227.377C895.846 226.111 893.178 224.872 890.515 223.636C874.667 216.286 858.278 208.684 845.566 194.882C835.767 184.243 833.135 167.388 838.863 151.944C846.353 131.744 861.127 116.691 875.412 102.135C878.191 99.3011 880.97 96.472 883.69 93.6101C891.381 85.5206 899.565 77.6498 907.479 70.0369C919.646 58.3312 932.231 46.2298 943.169 33.1751C965.953 5.98138 987.718 -13.9909 1019.89 -23.0817C1044.83 -30.1305 1063.37 -45.354 1074.99 -68.3215C1090.23 -98.4275 1107.85 -119.674 1130.46 -135.191C1175.79 -166.287 1226.74 -182.56 1286.25 -184.943C1302.06 -185.577 1318.16 -185.407 1333.71 -185.247C1340.9 -185.171 1348.09 -185.096 1355.27 -185.096C1356.24 -185.096 1357.21 -185.046 1358.19 -184.996C1360.19 -184.893 1362.08 -184.792 1363.83 -185.144C1385.16 -189.432 1407.46 -188.96 1430.12 -183.739C1467.47 -175.133 1485.94 -144.922 1497.86 -119.563C1502.85 -108.935 1507.37 -97.8875 1511.74 -87.205C1515.91 -77.0057 1520.22 -66.4609 1524.93 -56.3272C1530.41 -44.5297 1540.21 -38.2877 1553.27 -38.2702L1553.26 -34.9907C1539.05 -35.0082 1527.93 -42.0963 1521.96 -54.9476C1517.22 -65.1513 1512.89 -75.731 1508.7 -85.9653C1504.35 -96.6106 1499.85 -107.617 1494.89 -118.17C1482.56 -144.391 1465.14 -172.304 1429.38 -180.544C1407.18 -185.658 1385.35 -186.122 1364.47 -181.931C1362.33 -181.498 1360.14 -181.614 1358.02 -181.723C1357.1 -181.771 1356.18 -181.819 1355.27 -181.819C1348.07 -181.819 1340.88 -181.893 1333.68 -181.97C1318.16 -182.132 1302.1 -182.3 1286.38 -181.668C1227.5 -179.311 1177.11 -163.224 1132.32 -132.489C1110.18 -117.296 1092.89 -96.4379 1077.92 -66.8435C1065.86 -43.0233 1046.64 -27.2357 1020.78 -19.929C989.412 -11.0655 968.074 8.55035 945.679 35.2784C934.625 48.4708 921.977 60.6357 909.747 72.4004C901.858 79.987 893.699 87.8338 886.062 95.8686C883.327 98.7436 880.539 101.586 877.745 104.432C863.7 118.742 849.178 133.541 841.93 153.085C836.629 167.384 839.001 182.918 847.973 192.662C860.241 205.986 875.616 213.113 891.888 220.665C894.567 221.905 897.243 223.149 899.908 224.421C906.076 227.366 912.215 230.377 918.352 233.387C925.783 237.034 933.471 240.804 941.081 244.385C949.322 248.259 957.597 252.061 965.87 255.859C976.71 260.835 987.921 265.984 998.866 271.224C1004.69 274.014 1010.02 277.906 1014.71 281.336C1026.26 289.769 1028.11 304.522 1019.43 318.924C1016.21 324.256 1011.76 328.854 1007.45 333.299C1006.23 334.561 1005.01 335.82 1003.82 337.09C998.055 343.271 992.095 349.465 986.33 355.455C974.39 367.861 962.046 380.686 950.802 394.025C944.774 401.178 939.645 409.358 934.684 417.27C930.547 423.868 926.271 430.688 921.452 436.965C909.989 451.897 897.236 466.858 882.467 482.701C871.765 494.175 866.015 508.758 864.365 528.59C861.614 561.68 848.704 576.031 815.028 583.434C808.235 584.93 801.254 586.128 794.502 587.291C774.738 590.693 754.297 594.211 736.603 605.495C731.402 608.809 726.209 612.368 721.187 615.812C712.488 621.776 703.491 627.942 694.092 633.093C672.893 644.718 650.324 656.045 625.091 667.722C617.277 671.339 609.286 674.911 601.557 678.368C570.758 692.146 538.899 706.392 510.863 726.647Z" fill="#50C878" fill-opacity="0.75"/>
                <path d="M80.0636 725.7C79.2569 722.364 78.4326 719.028 77.6106 715.693C75.809 708.404 73.9484 700.868 72.3108 693.404L70.2863 684.214C66.7706 668.285 63.1347 651.815 60.1438 635.492C58.4953 626.486 57.2076 617.277 55.9657 608.37C54.8135 600.112 53.6198 591.57 52.144 583.242C51.1273 577.508 49.9577 571.685 48.8273 566.056C44.9334 546.654 40.9062 526.592 42.2355 506.086C43.1953 491.311 49.1815 472.434 72.2474 466.415C89.2441 461.973 102.557 469.05 115.432 475.893L115.688 476.031C131.653 484.516 142.705 499.062 151.813 512.031C153.271 514.106 154.712 516.194 156.153 518.277C166.792 533.678 176.84 548.224 192.645 558.211C197.886 561.523 203.096 564.884 208.306 568.244C216.269 573.382 224.5 578.691 232.705 583.723C243.436 590.309 250.876 600.429 253.655 612.225C256.663 624.995 254.197 638.638 246.709 650.641C244.234 654.609 241.685 658.549 239.133 662.489C226.735 681.639 213.912 701.441 210.081 725.029L206.843 724.504C210.785 700.238 223.796 680.143 236.379 660.707C238.919 656.782 241.46 652.86 243.926 648.909C250.948 637.652 253.268 624.892 250.463 612.977C247.848 601.881 241.114 592.731 230.991 586.52C222.755 581.467 214.506 576.146 206.528 570.999C201.327 567.643 196.126 564.289 190.894 560.981C174.522 550.64 163.812 535.136 153.455 520.14C152.018 518.063 150.58 515.984 149.128 513.911C140.241 501.255 129.473 487.07 114.149 478.923L113.893 478.788C101.007 471.938 88.8374 465.468 73.0761 469.585C51.9013 475.112 46.3983 492.601 45.5084 506.298C44.2054 526.369 48.1889 546.217 52.0412 565.408C53.176 571.056 54.3478 576.898 55.371 582.67C56.8599 591.059 58.0559 599.629 59.2125 607.915C60.4499 616.79 61.7311 625.966 63.3687 634.904C66.3487 651.168 69.9758 667.607 73.4871 683.51L75.5117 692.702C77.1405 700.127 78.9967 707.643 80.7917 714.911C81.6159 718.249 82.4424 721.592 83.2491 724.935L80.0636 725.7Z" fill="#50C878" fill-opacity="0.75"/>
                <path d="M1081.86 146.357C1072.86 124.467 1062.68 101.513 1050.75 76.182C1043.56 60.8951 1035.41 52.2568 1025.12 48.997C1014.44 45.6169 1001.81 48.1968 986.511 56.9006C953.832 75.4868 926.699 99.8864 905.87 129.422C897.953 140.651 894.969 150.966 897.002 160.079C899.007 169.062 905.909 176.968 917.514 183.571C929.955 190.648 942.732 197.155 955.9 202.774C967.811 207.855 980.042 212.205 992.554 215.559C1006.6 219.324 1020.8 221.316 1035.19 222.993C1046.77 224.344 1058.11 224.305 1069.44 221.351C1079.23 218.799 1086.38 211.381 1089.3 201.777C1090.43 198.082 1090.99 194.231 1091.2 190.381C1092.08 173.743 1086.97 158.789 1081.86 146.357ZM1087.92 190.206C1087.45 199.074 1084.81 208.29 1077.47 213.898C1068.74 220.57 1056.71 220.42 1046.28 220.256C1033.99 220.063 1021.77 218.467 1009.71 216.145C997.434 213.782 985.366 210.391 973.592 206.186C960.749 201.602 948.259 196.061 936.112 189.876C930.383 186.96 924.729 183.899 919.143 180.72C908.376 174.594 902.005 167.407 900.21 159.364C898.386 151.191 901.193 141.753 908.557 131.311C929.104 102.173 955.883 78.0972 988.138 59.7516C1002.6 51.5288 1014.37 49.0364 1024.13 52.1235C1033.49 55.0903 1041.01 63.1776 1047.79 77.5791C1059.69 102.862 1069.85 125.766 1078.83 147.603C1083.8 159.698 1088.77 174.218 1087.92 190.206Z" fill="#50C878" fill-opacity="0.75"/>
                <path d="M587.501 726.164L585.807 723.359C588.601 721.671 591.358 719.904 594.115 718.138C600.068 714.327 606.225 710.385 612.707 707.284C653.905 687.579 695.972 667.935 736.656 648.938L740.587 647.101C768.15 634.232 796.815 627.457 825.78 626.96C841.38 626.696 857.244 626.801 872.581 626.897L881.431 626.952C884.461 626.969 887.481 627.422 890.4 627.859L891.67 628.047C921.684 632.455 935.029 655.186 944.122 676.844C948.712 687.769 953.342 698.679 957.971 709.589L964.132 724.117L961.112 725.398L954.951 710.87C950.321 699.956 945.69 689.044 941.099 678.112C931.92 656.253 919.519 635.45 891.193 631.292L889.914 631.101C887.109 630.682 884.208 630.246 881.414 630.231L872.559 630.176C857.241 630.08 841.399 629.975 825.835 630.24C797.333 630.727 769.121 637.398 741.975 650.072L738.044 651.907C697.367 670.904 655.306 690.544 614.122 710.243C607.823 713.255 601.752 717.141 595.884 720.899C593.1 722.681 590.319 724.463 587.501 726.164Z" fill="#50C878" fill-opacity="0.75"/>
                <path d="M1195.12 734.644L1192.02 733.229C1192.98 731.124 1193.88 728.979 1194.78 726.834C1196.75 722.153 1198.77 717.312 1201.47 712.9C1216.32 688.562 1238.16 671.012 1270.23 657.671C1306.78 642.465 1344.55 639.43 1385.71 648.397C1403.78 652.328 1423.34 655.889 1449.13 659.938C1457.38 661.233 1465.85 662.19 1474.03 663.115C1484.06 664.248 1494.44 665.42 1504.55 667.228C1524.08 670.717 1533.53 682.112 1532.65 701.096C1532.3 708.718 1532.39 716.51 1532.49 724.046C1532.52 727.536 1532.57 731.023 1532.57 734.512H1529.16C1529.16 731.038 1529.12 727.564 1529.08 724.088C1528.99 716.503 1528.9 708.661 1529.25 700.943C1530.05 683.697 1521.77 673.767 1503.95 670.582C1493.94 668.793 1483.62 667.626 1473.65 666.5C1465.43 665.57 1456.93 664.611 1448.6 663.305C1422.74 659.243 1403.11 655.673 1384.98 651.724C1344.52 642.918 1307.41 645.889 1271.54 660.817C1240.17 673.87 1218.83 690.982 1204.37 714.676C1201.82 718.869 1199.84 723.589 1197.92 728.152C1197.01 730.328 1196.09 732.505 1195.12 734.644Z" fill="#50C878" fill-opacity="0.75"/>
                <path d="M467.777 677.642C446.744 677.642 434.306 668.054 431.777 649.868C429.367 632.559 432.854 615.676 441.856 601.045C453.288 582.459 475.383 568.547 500.957 563.829C527.952 558.844 554.638 564.59 574.18 579.577C581.421 585.131 590.109 594.165 590.372 605.66C590.643 617.447 581.707 627.238 572.931 635.261C568.683 639.144 563.764 642.074 559.004 644.908C557.113 646.036 555.222 647.159 553.368 648.347C545.093 653.649 536.343 658.343 527.361 662.304C517.151 666.804 491.005 677.305 468.82 677.635C468.472 677.637 468.122 677.642 467.777 677.642ZM519.943 565.351C513.889 565.351 507.732 565.911 501.552 567.05C476.876 571.604 455.603 584.954 444.65 602.759C436.051 616.737 432.723 632.867 435.025 649.414C437.33 665.969 448.34 674.36 467.753 674.36C468.092 674.36 468.428 674.355 468.772 674.351C490.357 674.032 516.012 663.719 526.041 659.298C534.867 655.409 543.466 650.791 551.599 645.581C553.482 644.376 555.406 643.231 557.327 642.085C561.945 639.337 566.718 636.494 570.719 632.837C578.95 625.311 587.333 616.205 587.092 605.733C586.861 595.535 578.856 587.293 572.184 582.175C557.835 571.169 539.441 565.351 519.943 565.351Z" fill="#50C878" fill-opacity="0.75"/>
                <path d="M1106.74 541.009C1084.98 541.009 1066.05 531.502 1050.43 512.73C1039.53 499.647 1034.95 484.955 1037.51 471.365C1039.98 458.271 1049.04 446.808 1063.03 439.09C1091.07 423.622 1121.7 422.181 1156.68 434.674C1168.33 438.834 1177.77 446.677 1182.59 456.189C1184.48 459.93 1185.52 463.986 1185.68 468.251C1185.92 475.215 1183.9 482.732 1179.47 491.226C1168.98 511.388 1152.27 527.003 1131.15 536.382C1123.11 539.955 1114.32 540.86 1108.37 540.989C1107.82 541.002 1107.28 541.009 1106.74 541.009ZM1112.19 429.575C1095.35 429.575 1079.59 433.701 1064.62 441.961C1051.31 449.302 1043.05 459.681 1040.73 471.973C1038.35 484.583 1042.69 498.316 1052.95 510.634C1068.28 529.062 1086.84 538.171 1108.29 537.712C1113.95 537.587 1122.27 536.739 1129.82 533.385C1150.25 524.309 1166.42 509.206 1176.56 489.71C1180.71 481.732 1182.62 474.749 1182.39 468.365C1182.26 464.583 1181.34 460.984 1179.66 457.67C1175.22 448.898 1166.44 441.641 1155.57 437.761C1140.3 432.308 1125.89 429.575 1112.19 429.575Z" fill="#50C878" fill-opacity="0.75"/>
                <path d="M52.852 738.493C43.6715 700.584 41.3606 661.301 39.1261 623.314L39.0081 621.298C37.9914 604.028 35.1295 586.535 32.3638 569.615C31.0279 561.447 29.6462 552.997 28.4874 544.667C27.9649 540.908 27.3636 537.181 26.7645 533.457C24.4951 519.353 22.1492 504.768 24.2874 489.337C27.1078 468.986 34.7819 454.902 47.0954 447.473C59.7237 439.853 77.1489 439.718 97.4928 447.079C119.522 455.05 138.559 471.055 155.691 496.003C176.835 526.798 201.283 549.457 230.431 565.277C242.482 571.817 253.847 581.01 262.431 591.166C283.507 616.092 278.684 636.528 264.956 659.539C261.458 665.405 257.678 671.214 254.024 676.829C243.573 692.894 232.766 709.502 227.768 728.772C227.235 730.825 226.684 732.878 226.133 734.927L225.333 737.915L222.165 737.069L222.967 734.076C223.516 732.032 224.065 729.992 224.596 727.946C229.727 708.159 240.683 691.322 251.278 675.04C254.914 669.448 258.677 663.669 262.142 657.86C275.52 635.43 279.816 616.805 259.927 593.282C251.6 583.43 240.569 574.508 228.868 568.159C199.254 552.085 174.432 529.091 152.989 497.861C136.259 473.494 117.741 457.895 96.3778 450.164C76.9958 443.15 60.5392 443.19 48.792 450.282C37.3661 457.176 30.2146 470.466 27.5363 489.787C25.4659 504.733 27.6697 518.433 30.0025 532.937C30.606 536.682 31.2094 540.436 31.7341 544.214C32.8885 552.507 34.2681 560.935 35.5996 569.086C38.3806 586.087 41.2535 603.665 42.281 621.106L42.3991 623.121C44.627 660.965 46.927 700.098 56.0397 737.719L52.852 738.493Z" fill="#50C878" fill-opacity="0.75"/>
                <path d="M31.1068 772C19.8471 725.505 17.0115 677.312 14.2698 630.703L14.1255 628.235C12.8771 607.018 9.36364 585.538 5.96605 564.763C4.3263 554.741 2.63187 544.378 1.21075 534.159C0.567963 529.548 -0.181951 524.888 -0.905631 520.38C-3.68447 503.102 -6.55952 485.235 -3.94246 466.356C-0.496784 441.497 8.86077 424.301 23.8722 415.241C39.2706 405.954 60.5481 405.796 85.4047 414.791C112.365 424.544 135.669 444.14 156.649 474.694C182.631 512.538 212.678 540.385 248.508 559.831C263.259 567.837 277.169 579.09 287.674 591.515C313.401 621.943 307.505 646.895 290.74 675.001C286.45 682.194 281.813 689.321 277.329 696.213C264.486 715.949 251.208 736.358 245.06 760.065C244.391 762.645 243.7 765.216 243.007 767.789L242.069 771.29L238.901 770.443L239.842 766.939C240.53 764.374 241.219 761.81 241.886 759.238C248.169 735.016 261.596 714.381 274.58 694.422C279.049 687.557 283.667 680.458 287.926 673.322C304.428 645.656 309.726 622.673 285.173 593.634C274.924 581.51 261.351 570.531 246.947 562.712C210.652 543.015 180.233 514.833 153.951 476.553C133.371 446.58 110.587 427.386 84.294 417.873C60.3995 409.227 40.0905 409.29 25.5732 418.048C11.4494 426.571 2.61438 442.975 -0.689185 466.804C-3.23846 485.198 -0.529577 502.035 2.33891 519.86C3.06696 524.383 3.81906 529.06 4.46622 533.706C5.88297 543.886 7.5752 554.231 9.21058 564.234C12.6213 585.089 16.1479 606.656 17.4072 628.042L17.5515 630.511C20.2844 676.975 23.1114 725.022 34.3033 771.226L31.1068 772Z" fill="#50C878" fill-opacity="0.75"/>
                <path d="M1233.24 735.223L1230.14 733.804C1231.45 730.938 1232.65 727.886 1233.81 724.937C1236.39 718.369 1239.06 711.578 1243.29 705.961C1265.62 676.358 1298.45 660.665 1343.65 657.98C1380.34 655.813 1415.91 665.182 1450.3 674.253C1454.93 675.475 1459.55 676.693 1464.17 677.882C1492.44 685.167 1507.68 704.188 1509.46 734.412L1506.06 734.611C1504.35 705.627 1490.37 688.149 1463.32 681.179C1458.7 679.985 1454.07 678.768 1449.43 677.543C1415.29 668.542 1379.98 659.222 1343.85 661.38C1299.7 664.001 1267.7 679.253 1246.01 708.008C1242.06 713.255 1239.47 719.825 1236.98 726.181C1235.81 729.174 1234.59 732.27 1233.24 735.223Z" fill="#50C878" fill-opacity="0.75"/>
                <path d="M642.068 726.681L640.249 723.953C641.641 723.026 643.005 722.044 644.372 721.064C647.361 718.922 650.452 716.703 653.824 715.037C660.525 711.722 667.2 708.346 673.875 704.973C692.677 695.467 712.118 685.637 731.863 677.386C766.366 662.969 800.457 650.297 838.187 653.498C858.688 655.24 882.268 659.689 901.714 679.465C915.013 692.987 922.803 709.204 929.638 724.652L926.64 725.979C919.926 710.806 912.289 694.894 899.372 681.761C884.503 666.638 866.122 659.162 837.909 656.762C800.914 653.635 767.24 666.157 733.127 680.409C713.491 688.615 694.103 698.416 675.352 707.894C668.667 711.274 661.983 714.654 655.275 717.969C652.144 719.517 649.164 721.657 646.283 723.723C644.886 724.731 643.491 725.732 642.068 726.681Z" fill="#50C878" fill-opacity="0.75"/>
                <path d="M656.524 726.125L654.713 723.392C684.183 703.87 717.291 691.015 749.308 678.585C753.473 676.97 757.64 675.35 761.796 673.719C792.58 661.643 820.88 658.012 848.303 662.627C882.845 668.432 906.856 689.336 919.67 724.757L916.587 725.872C904.206 691.649 881.05 671.456 847.763 665.861C820.932 661.353 793.21 664.919 762.996 676.773C758.834 678.406 754.664 680.024 750.495 681.642C718.638 694.012 685.698 706.802 656.524 726.125Z" fill="#50C878" fill-opacity="0.75"/>
                <path d="M1290.65 735.717L1288.24 733.309C1288.87 732.684 1289.53 732.083 1290.19 731.484C1291.55 730.253 1292.84 729.09 1293.75 727.741C1301.68 716.005 1310.98 707.53 1322.19 701.833C1350.41 687.475 1380.92 686.303 1418.2 698.149C1436.81 704.061 1455.41 712.397 1465.4 733.196L1462.33 734.672C1452.9 715.036 1435.05 707.073 1417.17 701.393C1380.79 689.834 1351.1 690.938 1323.73 704.867C1313.05 710.296 1304.17 718.399 1296.57 729.645C1295.42 731.335 1293.92 732.693 1292.47 734.007C1291.85 734.569 1291.23 735.131 1290.65 735.717Z" fill="#50C878" fill-opacity="0.75"/>
                <path d="M719.783 726.766L718.257 723.863C743.639 710.504 767.809 701.451 792.149 696.188C832.782 687.401 860.866 696.361 880.539 724.375L877.854 726.257C859.036 699.459 832.028 690.917 792.842 699.396C768.797 704.593 744.898 713.548 719.783 726.766Z" fill="#50C878" fill-opacity="0.75"/>
                <path d="M491.529 638.856C485.51 638.856 478.487 636.392 475.158 629.179C471.911 622.142 473.15 614.822 478.649 608.56C483.689 602.825 489.159 598.938 494.911 597.007C498.186 595.908 501.667 595.413 505.246 595.472C506.49 595.503 507.706 595.56 508.893 595.663C517.629 596.402 523.915 599.259 529.274 604.924C532.508 608.346 532.584 613.153 529.493 618.466C523.067 629.512 511.293 636.3 494.5 638.651C493.553 638.784 492.556 638.856 491.529 638.856ZM504.518 598.743C501.547 598.743 498.667 599.205 495.954 600.116C490.759 601.861 485.766 605.431 481.113 610.724C476.454 616.026 475.424 621.932 478.135 627.804C481.279 634.615 488.671 636.154 494.045 635.404C509.791 633.202 520.765 626.949 526.657 616.82C529.02 612.76 529.099 609.515 526.891 607.18C522.127 602.141 516.49 599.596 508.615 598.931C507.491 598.837 506.344 598.78 505.169 598.754C504.953 598.745 504.734 598.743 504.518 598.743Z" fill="#50C878" fill-opacity="0.75"/>
                <path d="M864.62 726.403C849.912 709.771 830.583 702.959 807.167 706.168C794.576 707.891 781.978 711.582 769.789 715.148C766.37 716.149 762.957 717.148 759.54 718.108C754.389 719.555 749.268 721.604 744.316 723.585C742.012 724.505 739.712 725.428 737.394 726.296L736.242 723.226C738.538 722.365 740.818 721.453 743.098 720.539C748.131 718.526 753.335 716.444 758.652 714.951C762.058 713.993 765.46 712.996 768.867 711.999C781.169 708.398 793.889 704.673 806.721 702.917C830.937 699.605 851.815 706.969 867.075 724.228L864.62 726.403Z" fill="#50C878" fill-opacity="0.75"/>
                <path d="M1436.01 735.623C1418.29 715.057 1381.53 706.619 1352.34 716.416C1342.02 719.877 1330.41 724.491 1323.21 735.446L1320.36 733.575C1328.16 721.71 1340.39 716.83 1351.25 713.187C1381.67 702.984 1420.03 711.86 1438.59 733.4L1436.01 735.623Z" fill="#50C878" fill-opacity="0.75"/>
                <path d="M1091.06 731.441L1087.85 730.765C1090.42 718.524 1088.45 712.295 1081.05 709.262C1076.11 707.238 1071.31 707.415 1067.17 709.787C1062.22 712.625 1058.78 718.452 1057.74 725.776C1057.59 726.871 1057.63 728.037 1057.68 729.272C1057.7 729.882 1057.72 730.496 1057.72 731.104H1054.45C1054.45 730.536 1054.42 729.965 1054.4 729.397C1054.35 728.074 1054.3 726.703 1054.5 725.317C1055.68 716.985 1059.71 710.29 1065.54 706.945C1070.51 704.092 1076.46 703.845 1082.29 706.23C1091.25 709.894 1093.95 717.671 1091.06 731.441Z" fill="#50C878" fill-opacity="0.75"/>
                <path d="M1118.85 747.018L1115.64 746.342C1122.87 711.894 1116.83 693.457 1095.45 684.696C1081.39 678.931 1067.12 679.495 1055.27 686.288C1041.05 694.441 1031.2 711.031 1028.25 731.806C1027.79 735.035 1027.91 738.327 1028.05 741.815C1028.1 743.439 1028.17 745.064 1028.17 746.681H1024.89C1024.89 745.107 1024.83 743.524 1024.77 741.939C1024.63 738.463 1024.5 734.869 1025 731.344C1028.09 709.562 1038.53 692.101 1053.64 683.441C1066.38 676.141 1081.68 675.509 1096.7 681.662C1119.85 691.153 1126.47 710.696 1118.85 747.018Z" fill="#50C878" fill-opacity="0.75"/>
                <path d="M1149.43 770.509L1146.22 769.833C1158.61 710.791 1148.18 679.154 1111.32 664.053C1087.15 654.147 1062.61 655.126 1042.21 666.815C1017.8 680.809 1000.9 709.232 995.847 744.797C995.055 750.374 995.278 756.267 995.495 761.964C995.597 764.653 995.702 767.437 995.702 770.172H992.423C992.423 767.498 992.318 764.75 992.217 762.091C991.994 756.247 991.767 750.206 992.602 744.338C997.795 707.765 1015.28 678.472 1040.58 663.972C1061.87 651.77 1087.43 650.723 1112.57 661.019C1151.19 676.848 1162.22 709.593 1149.43 770.509Z" fill="#50C878" fill-opacity="0.75"/>
                <path d="M720.079 143.3C711.414 143.3 703.502 139.66 696.709 132.436C675.48 109.873 661.542 83.0512 646.79 52.8643C642.426 43.9353 642.02 36.259 645.581 30.0498C651.128 20.3796 666.111 14.5683 690.117 12.7733C703.959 11.7414 717.77 12.2836 726.918 12.9198C753.707 14.7848 774.333 19.5554 791.832 27.9313C803.005 33.2791 810.414 37.9688 812.817 44.8142C814.704 50.197 813.538 56.5746 808.921 66.1442C792.589 99.9844 768.17 124.625 736.345 139.382C730.707 142.002 725.258 143.3 720.079 143.3ZM690.362 16.0463C667.83 17.7298 653.33 23.1366 648.428 31.683C645.439 36.8909 645.881 43.533 649.738 51.4257C664.371 81.3677 678.184 107.96 699.101 130.189C709.033 140.749 721.098 142.841 734.968 136.409C766.088 121.977 789.976 97.8571 805.969 64.7187C810.117 56.1242 811.278 50.3216 809.726 45.9008C807.701 40.1245 800.838 35.8764 790.42 30.8894C773.305 22.6993 753.055 18.0293 726.697 16.1928C717.652 15.5631 704.009 15.0253 690.362 16.0463Z" fill="#50C878" fill-opacity="0.75"/>
                <path d="M1501.42 45.4455C1500.34 38.458 1498.2 31.5491 1494.42 25.5279C1491.01 20.0949 1486.31 15.5866 1480.72 12.4427C1474.57 8.98605 1467.62 7.21732 1460.63 6.55048C1450.32 5.56444 1440.28 8.01752 1430.6 11.4457C1421.66 14.6115 1413.15 18.8683 1405.05 23.7789C1397.29 28.4795 1389.92 33.7748 1382.74 39.3063C1380.61 40.946 1378.5 42.6055 1376.4 44.2758C1361.11 56.4341 1345.83 67.9081 1327.08 74.666C1299.43 84.6402 1272.52 82.9982 1244.82 69.6462C1235.2 65.0111 1225.63 59.8317 1216.37 54.8228C1207.12 49.816 1197.55 44.6388 1187.91 39.9863C1178.71 35.548 1169.31 32.8281 1160.72 32.1154C1138.63 30.2985 1123.46 46.084 1121.16 73.3521C1119.06 98.2545 1126.65 121.307 1133.49 138.61C1136.65 146.581 1139.74 154.575 1142.83 162.57C1149.13 178.841 1155.63 195.667 1162.57 212.003C1173.4 237.522 1194.24 252.352 1228.15 258.678C1259.07 264.447 1290.54 265.628 1321.57 265.628C1332.43 265.628 1343.23 265.484 1353.94 265.339C1358.84 265.274 1363.74 265.206 1368.63 265.156C1400.86 264.815 1422.24 248.741 1432.18 217.382C1445.45 175.522 1463.54 137.76 1487.48 101.934C1499.52 83.923 1504.34 64.388 1501.42 45.4455ZM1484.76 100.115C1460.64 136.199 1442.42 174.234 1429.06 216.394C1419.59 246.248 1399.25 261.55 1368.6 261.878C1363.71 261.931 1358.81 261.996 1353.91 262.062C1312.75 262.615 1270.18 263.184 1228.76 255.457C1196.03 249.353 1175.96 235.139 1165.59 210.727C1158.68 194.441 1152.18 177.638 1145.9 161.392C1142.8 153.388 1139.7 145.386 1136.55 137.408C1129.84 120.437 1122.39 97.8522 1124.43 73.6297C1126.56 48.3753 1140.32 33.7005 1160.46 35.3862C1168.65 36.0639 1177.65 38.6766 1186.49 42.94C1196.06 47.5597 1205.59 52.7173 1214.81 57.7066C1224.1 62.7352 1233.71 67.9343 1243.4 72.6021C1271.93 86.3542 1299.67 88.0377 1328.2 77.751C1347.41 70.8224 1362.93 59.178 1378.44 46.8426C1395.72 33.1102 1415.85 18.3305 1440.28 11.8895C1449.08 9.57202 1458.33 9.00793 1467.18 11.0828C1484.41 15.1188 1495.23 26.8004 1498.18 45.944C1501.71 68.8329 1492.83 88.0355 1484.76 100.115Z" fill="#50C878" fill-opacity="0.75"/>
                <path d="M1522.39 -0.476746C1516.64 -14.7558 1503.24 -17.4428 1492.2 -18.1905C1488.83 -18.4179 1485.43 -18.3567 1482.13 -18.2998C1481.8 -18.2933 1481.41 -18.2867 1480.97 -18.278C1477.59 -18.208 1474.23 -17.7314 1470.96 -16.8634C1469.89 -16.5792 1468.82 -16.2906 1467.75 -16.0042C1461.79 -14.4038 1455.63 -12.7487 1449.51 -11.6468C1425.64 -7.34842 1406.45 5.78278 1388.83 18.8637C1382.54 23.5403 1376.38 28.6279 1370.42 33.5471C1360.32 41.8859 1349.87 50.5088 1338.62 57.2296C1307.53 75.7983 1273.77 74.751 1238.28 54.1207C1226.1 47.0435 1214.06 39.2251 1202.42 31.6647C1194.13 26.2841 1185.56 20.7177 1176.99 15.4508C1164.77 7.9385 1150.27 4.9148 1132.68 6.20255C1118.78 7.2192 1106.76 19.6748 1103.47 36.4878C1097.99 64.4708 1100.51 92.4123 1111.16 121.906C1116.1 135.569 1120.91 149.541 1125.57 163.055C1132.75 183.893 1140.18 205.44 1148.22 226.365C1157.6 250.758 1175.29 264.994 1199.37 267.53C1218.69 269.565 1238.33 271.494 1257.34 273.359L1266.12 274.222C1272.97 274.898 1279.94 275.68 1286.68 276.441C1302.56 278.23 1318.98 280.079 1335.2 280.624C1360.71 281.477 1385.63 287.447 1409.73 293.224C1414.07 294.267 1418.42 295.307 1422.78 296.322C1423.91 296.586 1425.07 296.717 1426.26 296.717C1430.13 296.717 1434.19 295.314 1437.99 292.616C1445.25 287.471 1450.56 278.374 1451.53 269.447C1452.55 259.941 1453.83 250.293 1455.07 240.961C1456.1 233.171 1457.16 225.115 1458.08 217.167C1461.31 189.256 1472.56 162.297 1493.49 132.317C1512.43 105.205 1522.88 81.6096 1526.4 58.0626C1528.68 42.8632 1530.73 20.2585 1522.39 -0.476746ZM1523.16 57.5773C1519.73 80.606 1509.45 103.757 1490.81 130.442C1469.55 160.882 1458.12 188.321 1454.83 216.791C1453.91 224.71 1452.85 232.754 1451.82 240.531C1450.58 249.879 1449.3 259.55 1448.27 269.093C1447.4 277.132 1442.62 285.314 1436.1 289.942C1431.92 292.909 1427.46 294.044 1423.53 293.128C1419.18 292.115 1414.84 291.072 1410.5 290.036C1386.24 284.223 1361.16 278.21 1335.32 277.344C1319.22 276.806 1302.87 274.963 1287.06 273.184C1280.31 272.423 1273.32 271.636 1266.45 270.96L1257.66 270.094C1238.66 268.232 1219.02 266.303 1199.72 264.268C1176.62 261.837 1160.33 248.688 1151.29 225.187C1143.27 204.316 1135.85 182.798 1128.68 161.986C1124.01 148.461 1119.2 134.475 1114.25 120.791C1103.8 91.8701 1101.33 64.4993 1106.69 37.1175C1109.7 21.7518 1120.49 10.3828 1132.92 9.4733C1149.81 8.23145 1163.66 11.1065 1175.28 18.2471C1183.81 23.49 1192.36 29.0455 1200.64 34.4173C1212.31 41.9996 1224.39 49.8398 1236.63 56.9585C1273.23 78.2317 1308.11 79.2746 1340.31 60.05C1351.77 53.2002 1362.31 44.4964 1372.51 36.0811C1378.43 31.1881 1384.56 26.1267 1390.79 21.5004C1408.09 8.65343 1426.92 -4.23946 1450.09 -8.41319C1456.35 -9.54134 1462.58 -11.2139 1468.6 -12.8318C1469.55 -13.0876 1470.5 -13.3412 1471.45 -13.5948C1474.84 -14.4978 1478.35 -14.9678 1481.86 -15.0138C1481.97 -15.0159 1482.08 -15.0159 1482.18 -15.0181C1485.41 -15.075 1488.75 -15.134 1491.97 -14.9154C1502.06 -14.2332 1514.28 -11.837 1519.35 0.747601C1527.39 20.7417 1525.38 42.756 1523.16 57.5773Z" fill="#50C878" fill-opacity="0.75"/>
                <path d="M1441.2 -108.375C1436 -122.18 1424.43 -132.628 1410.25 -136.323C1395.07 -140.281 1379.65 -140.281 1364.74 -140.281C1357.29 -140.281 1349.58 -140.281 1342.05 -140.781C1330.1 -141.573 1317.97 -142.974 1306.24 -144.328C1297.58 -145.329 1288.61 -146.363 1279.77 -147.148C1273.86 -147.671 1267.85 -147.535 1262.03 -147.399C1261.18 -147.38 1260.18 -147.356 1259.12 -147.332C1254.61 -147.229 1250.13 -146.623 1245.75 -145.543C1244.37 -145.2 1242.98 -144.859 1241.59 -144.518C1233.5 -142.524 1225.14 -140.462 1216.93 -138.293C1201.19 -134.126 1187.49 -124.911 1176.23 -110.905C1159.46 -90.0472 1160.61 -69.4978 1179.76 -48.076C1201.34 -23.9147 1224.81 1.24139 1253.4 19.9762C1266.82 28.7631 1279.95 33.1599 1292.97 33.1577C1307.01 33.1555 1320.93 28.0482 1334.92 17.8248C1348.25 8.09123 1361.12 -2.67653 1373.58 -13.0901C1382.81 -20.8122 1392.36 -28.799 1402.01 -36.2916L1405.48 -38.9699C1416.73 -47.6496 1428.37 -56.6268 1436.78 -69.043C1444.64 -80.6328 1446.25 -94.9709 1441.2 -108.375ZM1434.06 -70.8796C1425.94 -58.8984 1415.03 -50.4766 1403.47 -41.5628L1399.99 -38.878C1390.3 -31.3504 1380.72 -23.344 1371.47 -15.6022C1359.06 -5.22362 1346.22 5.50916 1332.98 15.1815C1307.23 33.9863 1281.79 34.6575 1255.2 17.2367C1226.94 -1.27943 1203.64 -26.2606 1182.2 -50.2579C1164.05 -70.5625 1162.97 -89.1793 1178.78 -108.848C1189.59 -122.296 1202.71 -131.135 1217.77 -135.121C1225.94 -137.283 1234.3 -139.341 1242.37 -141.332C1243.66 -141.649 1244.95 -141.966 1246.24 -142.286C1250.84 -143.42 1255.55 -144.019 1260.29 -144.087C1260.91 -144.096 1261.52 -144.107 1262.1 -144.12C1267.83 -144.253 1273.75 -144.389 1279.47 -143.879C1288.27 -143.099 1297.21 -142.067 1305.86 -141.068C1317.63 -139.71 1329.8 -138.304 1341.82 -137.506C1349.47 -136.999 1357.23 -136.999 1364.74 -136.999C1379.44 -136.999 1394.64 -136.999 1409.42 -133.149C1422.57 -129.721 1433.3 -120.026 1438.13 -107.219C1442.8 -94.8244 1441.31 -81.5795 1434.06 -70.8796Z" fill="#50C878" fill-opacity="0.75"/>
                <path d="M1456.25 -116.301C1446.93 -135.639 1427.91 -149.18 1406.62 -151.637C1395.74 -152.892 1385.02 -153.41 1373.14 -153.911C1345.92 -155.056 1318.7 -156.11 1291.47 -157.164L1272.93 -157.831C1263.42 -158.174 1253.9 -157.4 1244.56 -155.555C1244.47 -155.537 1244.38 -155.52 1244.29 -155.502C1234.1 -153.489 1223.55 -151.403 1213.57 -148.032C1184.1 -138.069 1164.39 -124.135 1151.57 -104.178C1138.42 -83.7051 1140.56 -63.1665 1157.44 -47.8293C1185.71 -22.1463 1214.18 2.55499 1242.06 25.5881C1255.5 36.6926 1271.53 43.3347 1288.41 44.793C1290.26 44.9526 1292.11 45.0335 1293.95 45.0335C1310.33 45.0313 1326.33 38.7434 1340.54 26.6529C1369.87 1.7045 1402.03 -22.577 1436.12 -45.514C1442.99 -50.1381 1449.46 -56.9923 1454.34 -64.815C1463.92 -80.1829 1464.62 -98.9482 1456.25 -116.301ZM1451.56 -66.5488C1446.92 -59.1087 1440.79 -52.6043 1434.29 -48.2316C1400.1 -25.2269 1367.85 -0.870987 1338.42 24.1583C1327.87 33.1332 1310.7 43.4287 1288.7 41.5288C1272.49 40.1273 1257.08 33.7432 1244.15 23.0629C1216.32 0.062561 1187.89 -24.606 1159.65 -50.254C1143.85 -64.6139 1141.96 -83.1344 1154.33 -102.403C1166.73 -121.699 1185.89 -135.211 1214.63 -144.923C1224.4 -148.228 1234.84 -150.29 1244.93 -152.284C1244.98 -152.293 1245.02 -152.302 1245.07 -152.31C1254.54 -154.184 1264.21 -154.951 1273.85 -154.573L1291.35 -153.887C1318.56 -152.833 1345.78 -151.779 1373 -150.631C1384.82 -150.133 1395.48 -149.619 1406.24 -148.377C1426.43 -146.049 1444.46 -133.21 1453.3 -114.876C1461.16 -98.5591 1460.53 -80.9437 1451.56 -66.5488Z" fill="#50C878" fill-opacity="0.75"/>
                <path d="M1294.14 238.8C1279.86 238.8 1265.63 237.127 1251.54 233.782C1224.44 227.35 1205 213.86 1192.1 192.541C1181.6 175.186 1175.3 157.113 1170.51 141.726C1167.73 132.786 1167.89 122.987 1168.04 113.511C1168.16 105.962 1171.97 98.4953 1178.22 93.5366C1183.77 89.1377 1190.44 87.3777 1196.53 88.6983C1208.54 91.3109 1224.34 94.9403 1240.04 99.8617C1272.96 110.188 1303.21 110.839 1332.51 101.856C1349.79 96.5604 1367.24 90.7359 1384.12 85.1039C1388.4 83.674 1392.68 82.2442 1396.97 80.8209C1399.03 80.1387 1401.1 79.4806 1403.16 78.8116C1405.5 78.0486 1407.56 77.4254 1410.04 77.3074C1411.91 77.2177 1413.82 77.3708 1415.63 77.8759C1418.82 78.7679 1421.52 80.823 1423.05 83.7834C1423.87 85.3728 1424.33 87.1263 1424.54 88.8972C1425.47 96.8293 1426.51 105.82 1424.38 113.867C1419.2 133.457 1412.77 156.457 1404.36 178.526C1394.2 205.191 1376.87 222 1351.39 229.91C1332.31 235.837 1313.17 238.8 1294.14 238.8ZM1192.49 91.5493C1188.33 91.5493 1184.01 93.1322 1180.26 96.11C1174.77 100.463 1171.43 106.989 1171.32 113.566C1171.17 122.783 1171.02 132.316 1173.64 140.755C1178.37 155.955 1184.59 173.791 1194.91 190.844C1207.33 211.374 1226.1 224.376 1252.29 230.596C1284.57 238.26 1317.58 236.976 1350.41 226.788C1374.88 219.195 1391.52 203.029 1401.3 177.368C1409.65 155.441 1416.05 132.543 1421.22 113.037C1423.19 105.59 1422.18 96.9277 1421.29 89.2842C1420.89 85.9238 1419.24 82.911 1416.04 81.5292C1413.54 80.4492 1410.35 80.3005 1407.69 80.7728C1405.93 81.0854 1404.16 81.9009 1402.46 82.4628C1400.51 83.1056 1398.57 83.7484 1396.63 84.3934C1392.81 85.6658 1388.98 86.9426 1385.16 88.2195C1368.26 93.858 1350.8 99.6868 1333.48 104.995C1303.52 114.178 1272.63 113.522 1239.06 102.995C1223.48 98.1105 1207.77 94.503 1195.83 91.9056C1194.74 91.6673 1193.62 91.5493 1192.49 91.5493Z" fill="#50C878" fill-opacity="0.75"/>
                <path d="M1060.03 155.274C1053.96 135.258 1044.12 117.982 1035.29 103.72C1028.05 92.0233 1018.65 85.0533 1007.83 82.6133C1000.49 80.956 992.759 81.8896 985.838 84.8521C966.252 93.2302 950.152 105.887 937.906 122.556C929.843 133.529 926.668 142.707 928.201 150.615C929.646 158.082 935.145 164.551 945.502 170.966C972.829 187.897 1000.38 196.467 1027.44 196.467C1028.46 196.467 1029.49 196.454 1030.51 196.43C1043.18 196.124 1052.62 192.178 1057.8 185.013C1063.06 177.75 1063.8 167.743 1060.03 155.274ZM1055.14 183.091C1050.58 189.397 1042.04 192.875 1030.44 193.153C1003 193.778 975.041 185.409 947.229 168.178C937.705 162.277 932.683 156.499 931.424 149.992C930.077 143.031 933.061 134.692 940.554 124.497C952.518 108.213 968.279 95.8669 987.477 87.7206C994.29 84.8302 1001.94 84.0257 1009.07 86.0109C1018.22 88.5602 1026.01 94.9596 1032.51 105.447C1041.22 119.53 1050.94 136.574 1056.89 156.228C1060.35 167.662 1059.77 176.7 1055.14 183.091Z" fill="#50C878" fill-opacity="0.75"/>
                <path d="M1291.31 221.003C1287.75 221.003 1284.21 220.942 1280.71 220.859C1242.17 219.928 1215.17 200.837 1200.46 164.115C1196.07 153.17 1195.81 143.196 1199.71 135.27C1203.33 127.898 1210.42 122.528 1220.23 119.743L1220.68 119.682H1221.79C1229.33 120.136 1236.89 120.698 1244.2 121.243C1260.93 122.487 1278.23 123.774 1295.21 123.807C1308.36 123.834 1321.87 122.753 1334.89 121.706C1344.1 120.967 1353.61 120.202 1363 119.83C1371.5 119.502 1377.76 121.33 1382.12 125.438C1386.68 129.739 1388.99 136.385 1389.17 145.76C1389.66 171.045 1371.19 199.619 1347.12 210.811C1328.72 219.368 1309.67 221.003 1291.31 221.003ZM1220.91 122.959C1212.14 125.5 1205.83 130.255 1202.65 136.715C1199.18 143.784 1199.48 152.838 1203.51 162.897C1217.88 198.786 1243.16 216.67 1280.79 217.58C1301.95 218.085 1324.41 217.759 1345.74 207.837C1368.73 197.15 1386.36 169.911 1385.89 145.824C1385.73 137.376 1383.76 131.486 1379.87 127.824C1376.19 124.349 1370.72 122.815 1363.13 123.105C1353.81 123.475 1344.33 124.236 1335.15 124.975C1322.07 126.024 1308.53 127.1 1295.21 127.087C1278.1 127.054 1260.74 125.762 1243.96 124.513C1236.66 123.969 1229.11 123.409 1221.7 122.959H1220.91Z" fill="#50C878" fill-opacity="0.75"/>
                <path d="M311.213 414.091C290.666 414.091 270.411 407.394 252.809 393.915C230.653 376.947 212.331 345.892 224.467 317.806C228.318 308.899 232.717 299.605 238.806 291.999C260.184 265.282 281.658 239.478 302.629 215.308C312.774 203.616 328.691 188.976 346.901 185.631C356.98 183.772 366.713 185.578 375.826 190.983C408.833 210.557 426.742 240.038 427.62 276.233C428.753 322.979 411.345 362.178 377.284 389.595C357.041 405.888 333.949 414.091 311.213 414.091ZM347.493 188.854C330.217 192.028 314.908 206.161 305.104 217.455C284.161 241.595 262.715 267.363 241.364 294.047C235.519 301.35 231.236 310.408 227.476 319.107C216.039 345.577 233.624 375.089 254.803 391.307C290.639 418.75 337.908 417.077 375.227 387.039C408.464 360.287 425.447 321.998 424.341 276.312C423.493 241.3 406.14 212.77 374.153 193.803C365.738 188.816 356.77 187.153 347.493 188.854Z" fill="#50C878" fill-opacity="0.75"/>
                <path d="M892.818 340.387C891.947 321.464 882.636 305.274 866.601 294.804C832.938 272.82 798.7 251.912 766.521 232.379C756.934 226.561 747.148 222.029 737.563 218.719C718.441 212.116 697.133 216.01 682.205 229.662C674.478 236.728 668.022 245.237 661.957 253.768C653.476 265.699 644.589 280.289 642.96 298.037C640.728 322.409 650.695 343.756 672.583 361.492C698.683 382.638 726.953 396.851 756.604 403.734C772.059 407.324 786.601 409.121 800.357 409.119C820.627 409.119 839.191 405.216 856.437 397.383C881.431 386.036 894.011 366.324 892.818 340.387ZM855.081 394.403C826.818 407.243 794.85 409.25 757.352 400.546C728.186 393.775 700.362 379.78 674.651 358.949C653.664 341.946 644.101 321.554 646.231 298.341C647.785 281.366 656.406 267.247 664.633 255.673C669.45 248.895 674.356 242.329 679.824 236.542C695.423 220.031 719.405 214.906 740.582 223.122C748.545 226.212 756.637 230.219 764.82 235.187C796.977 254.704 831.187 275.595 864.808 297.55C879.938 307.43 888.723 322.695 889.545 340.536C890.668 365.023 878.753 383.65 855.081 394.403Z" fill="#50C878" fill-opacity="0.75"/>
                <path d="M1106.13 530.229C1086.28 530.229 1065.43 520.537 1056.59 504.92C1046.2 486.566 1043.46 472.311 1060.22 453.755C1067.29 445.924 1078.8 440.497 1092.62 438.47C1096.5 437.902 1100.46 437.613 1104.4 437.613C1104.42 437.613 1104.43 437.613 1104.44 437.613C1126.17 437.633 1152.19 444.857 1160.07 465.076C1164.27 475.852 1162.48 488.544 1155.01 500.821C1148.56 511.437 1138.47 520.718 1128.02 525.644C1121.38 528.773 1113.83 530.229 1106.13 530.229ZM1093.09 441.715C1080.03 443.63 1069.22 448.687 1062.65 455.955C1047.14 473.128 1049.56 485.846 1059.44 503.306C1070.96 523.639 1104.24 533.235 1126.63 522.673C1145.1 513.963 1165.6 488.286 1157.01 466.265C1149.73 447.585 1125.08 440.91 1104.44 440.893C1104.43 440.893 1104.41 440.893 1104.4 440.893C1100.62 440.893 1096.82 441.168 1093.09 441.715Z" fill="#50C878" fill-opacity="0.75"/>
                <path d="M454.735 697.18C453.452 697.18 452.162 697.15 450.863 697.086C433.28 696.221 426.459 691.205 420.453 674.722C408.533 642.008 421.378 612.678 432.076 593.46C449.011 563.039 488.549 551.17 519.903 550.208C523.565 550.098 527.232 550.125 530.8 550.302C538.131 550.662 546.024 551.854 553.63 553.747C578.629 559.968 598.183 570.98 613.411 587.413C624.245 599.103 624.59 610.656 614.439 621.751C609.198 627.484 602.956 633.018 595.358 638.672C571.501 656.423 544.012 667.975 517.426 679.152C514.02 680.582 510.614 682.014 507.216 683.459C490.167 690.702 473.293 697.18 454.735 697.18ZM524.204 553.419C522.807 553.419 521.405 553.441 520.004 553.485C489.548 554.421 451.211 565.831 434.942 595.056C418.212 625.108 414.694 649.33 423.536 673.598C429.096 688.855 434.747 693.011 451.025 693.811C470.457 694.775 487.388 688.319 505.935 680.44C509.339 678.994 512.747 677.562 516.158 676.126C542.563 665.03 569.866 653.554 593.402 636.041C600.831 630.514 606.922 625.114 612.023 619.539C621.068 609.65 620.746 600.15 611.008 589.641C596.229 573.689 577.201 562.989 552.841 556.926C545.438 555.085 537.764 553.927 530.643 553.575C528.52 553.474 526.368 553.419 524.204 553.419Z" fill="#50C878" fill-opacity="0.75"/>
                <path d="M314.516 386.724C302.57 386.724 290.604 383.618 279.786 376.398C263.732 365.685 253.911 352.475 251.383 338.198C249.173 325.712 252.669 313.075 261.771 300.639C267.831 292.364 274.569 284.408 281.089 276.716C284.972 272.131 288.986 267.394 292.806 262.647C294.218 260.891 295.624 259.114 297.039 257.325C306.221 245.709 315.719 233.7 328.59 225.818C332.551 223.391 336.987 221.655 341.773 220.658C351.102 218.717 360.832 219.771 369.168 223.619C405.243 240.279 409.587 280.381 402.348 309.658C397.151 330.671 386.978 348.168 371.247 363.151C356.693 377.017 335.634 386.724 314.516 386.724ZM342.44 223.872C338.024 224.793 333.94 226.389 330.299 228.619C317.927 236.199 308.615 247.974 299.607 259.365C298.189 261.158 296.776 262.944 295.359 264.704C291.514 269.484 287.484 274.239 283.588 278.837C277.108 286.487 270.407 294.397 264.414 302.581C255.859 314.264 252.562 326.055 254.61 337.628C256.943 350.809 266.53 363.61 281.605 373.67C310.113 392.7 347.143 381.586 368.985 360.781C384.25 346.244 394.121 329.265 399.163 308.877C406.102 280.811 402.051 242.421 367.791 226.599C360.09 223.039 351.087 222.073 342.44 223.872Z" fill="#50C878" fill-opacity="0.75"/>
                <path d="M319.551 356.249C311.94 356.249 304.317 354.271 297.419 349.668C287.202 342.849 280.945 334.419 279.331 325.293C277.914 317.284 280.144 309.197 285.96 301.252C289.777 296.037 294.017 291.035 298.114 286.197C300.587 283.278 303.059 280.359 305.456 277.383C306.343 276.282 307.227 275.164 308.112 274.043C313.908 266.714 319.901 259.136 328.071 254.132C330.621 252.571 333.469 251.456 336.541 250.815C342.521 249.571 348.763 250.244 354.115 252.717C377.096 263.327 379.877 288.82 375.277 307.422C371.988 320.726 365.547 331.804 355.586 341.293C346.347 350.088 332.971 356.249 319.551 356.249ZM337.208 254.025C334.508 254.589 332.009 255.564 329.783 256.926C322.111 261.624 316.302 268.973 310.685 276.076C309.791 277.206 308.904 278.328 308.012 279.436C305.593 282.44 303.064 285.427 300.617 288.315C296.555 293.11 292.355 298.068 288.606 303.189C283.339 310.382 281.305 317.625 282.56 324.72C283.995 332.829 289.92 340.72 299.24 346.94C316.862 358.698 339.788 351.804 353.324 338.916C362.819 329.871 368.956 319.311 372.091 306.632C376.392 289.242 373.904 265.466 352.74 255.691C348.024 253.517 342.512 252.92 337.208 254.025Z" fill="#50C878" fill-opacity="0.75"/>
                <path d="M782.63 350.273C764.512 350.273 746.647 344.867 728.304 333.876C715.859 326.414 708.884 317.082 707.577 306.138C706.702 298.809 707.846 292.571 710.972 287.593C714.525 281.935 720.496 277.19 727.357 274.576C728.531 274.13 729.773 273.795 731.047 273.581C735.678 272.787 740.357 273.555 744.883 274.296C746.149 274.503 747.406 274.707 748.648 274.877C754.175 275.623 759.358 276.869 764.055 278.577C782.864 285.429 796.732 300.602 808.967 313.991C815.578 321.226 817.412 329.894 814 337.778C809.618 347.895 799.782 348.955 792.597 349.733C789.263 350.092 785.942 350.273 782.63 350.273ZM735.197 276.53C733.977 276.53 732.775 276.613 731.596 276.814H731.594C730.531 276.994 729.497 277.274 728.527 277.643C722.32 280.009 716.935 284.272 713.753 289.338C711.034 293.667 710.054 299.189 710.837 305.753C712.017 315.637 718.463 324.153 729.994 331.064C751.048 343.682 771.407 348.73 792.248 346.473C800.814 345.549 807.635 344.226 810.989 336.48C814.931 327.382 809.898 319.872 806.546 316.208C794.567 303.099 780.988 288.24 762.933 281.664C758.46 280.033 753.508 278.845 748.21 278.131C746.94 277.96 745.652 277.748 744.356 277.538C741.317 277.037 738.212 276.53 735.197 276.53Z" fill="#50C878" fill-opacity="0.75"/>
                <path d="M1414.94 439.073C1410.32 436.867 1405.67 434.738 1401.01 432.606C1382.93 424.333 1364.23 415.776 1348.48 402.66C1342.06 397.31 1335.32 392.135 1328.82 387.132C1323.58 383.11 1318.17 378.951 1312.96 374.731C1298.33 362.881 1280.54 356.576 1258.79 355.618C1254.46 355.428 1250.14 356.043 1246 357.317C1238.76 359.55 1230.97 361.843 1224.16 364.086C1203.24 370.982 1181.61 378.116 1160.08 384.091C1149.25 387.097 1137.46 387.721 1126.06 388.324C1123.44 388.464 1120.83 388.602 1118.24 388.768C1075.78 391.479 1046.78 401.372 1024.22 420.844C991.585 449.008 987.298 487.011 1012.75 522.5C1034.07 552.215 1065.78 570.383 1107.02 576.503C1111.1 577.106 1115.15 577.388 1119.22 577.388C1133.48 577.386 1147.94 573.925 1164.4 568.791C1192.36 560.072 1215.59 554.7 1237.52 551.884C1260.55 548.924 1285.45 543.401 1313.64 534.993C1339.56 527.26 1368.08 524.173 1400.81 525.522C1412.36 526.022 1422.43 522.57 1429.91 515.602C1437.88 508.173 1442.48 496.946 1442.85 483.99C1443.46 462.747 1434.59 448.47 1414.94 439.073ZM1439.57 483.902C1439.22 495.973 1435 506.382 1427.68 513.208C1420.86 519.566 1411.61 522.71 1400.95 522.253C1367.84 520.873 1338.97 524.019 1312.7 531.858C1284.3 540.33 1260.28 545.66 1237.11 548.638C1214.98 551.48 1191.57 556.891 1163.42 565.669C1142.7 572.132 1125.26 575.901 1107.51 573.265C1067.18 567.283 1036.19 549.56 1015.42 520.593C990.696 486.124 994.686 450.674 1026.37 423.332C1048.35 404.359 1076.75 394.71 1118.45 392.045C1121.03 391.881 1123.63 391.743 1126.23 391.606C1137.81 390.994 1149.78 390.359 1160.95 387.257C1182.57 381.26 1204.23 374.115 1225.19 367.206C1233.63 364.423 1242.14 361.86 1250.6 359.165C1253.48 358.251 1257.03 358.808 1260.01 358.974C1263.16 359.152 1266.3 359.447 1269.42 359.884C1275.28 360.702 1281.06 362.014 1286.66 363.924C1295.45 366.926 1303.68 371.435 1310.89 377.283C1316.13 381.527 1321.57 385.7 1326.82 389.734C1333.3 394.717 1340.01 399.87 1346.39 405.179C1362.47 418.576 1381.37 427.226 1399.65 435.588C1404.29 437.711 1408.92 439.832 1413.52 442.032C1431.86 450.803 1440.14 464.107 1439.57 483.902Z" fill="#50C878" fill-opacity="0.75"/>
                <path d="M1507.1 481.245C1507.09 473.986 1507.08 466.727 1507.08 459.471C1507.08 455.078 1507.08 450.688 1507.09 446.298C1507.11 436.396 1507.13 426.153 1507.05 416.078C1506.94 401.465 1498.97 391.836 1484.61 388.972C1477.4 387.534 1470.01 386.316 1462.88 385.137C1450.25 383.056 1437.2 380.902 1424.77 377.457C1400.45 370.712 1380.13 356.177 1361.79 341.474C1340.03 324.02 1314.3 313.819 1285.33 311.149C1274.09 310.113 1262.62 309.728 1251.53 309.354C1247.77 309.227 1243.14 309.127 1238.94 308.989C1236.14 308.897 1233.34 309.179 1230.6 309.8C1230.59 309.802 1230.57 309.807 1230.56 309.809C1227.5 310.504 1224.33 311.224 1221.28 312.26C1215.74 314.138 1210.17 316.193 1204.77 318.178C1194.59 321.93 1184.06 325.807 1173.47 328.618C1155.64 333.352 1137.24 337.239 1119.44 340.999C1114.13 342.121 1108.83 343.24 1103.53 344.386C1058.46 354.115 1022.09 372.719 992.338 401.262C973.048 419.771 960.584 440.113 954.228 463.454C948.478 484.572 948.519 503.454 954.35 521.172C955.301 524.055 956.13 527.062 956.93 529.97C958.163 534.443 959.436 539.067 961.202 543.462C967.355 558.781 979.576 570.931 996.549 578.592C1012.45 585.767 1029.02 592.077 1045.06 598.177C1051.5 600.628 1057.94 603.079 1064.35 605.591C1085.74 613.958 1105.56 618.368 1124.96 619.072C1130.86 619.286 1136.91 619.734 1142.75 620.167C1151 620.777 1159.43 621.402 1167.82 621.402C1172.52 621.402 1177.22 621.204 1181.86 620.699C1194.83 619.284 1207.75 615.998 1220.25 612.817C1228.5 610.718 1237.04 608.547 1245.48 606.944C1255.36 605.068 1265.3 602.633 1274.92 600.278C1298.35 594.539 1322.59 588.607 1347.34 590.444C1358.53 591.277 1369.85 593.874 1380.8 596.389C1384.78 597.302 1388.76 598.214 1392.74 599.052C1396.7 599.88 1400.63 600.768 1404.55 601.653C1417.99 604.688 1431.89 607.825 1446.39 608.435C1474.29 609.666 1497.15 591.006 1504.64 561.053C1506.58 553.32 1506.91 545.294 1506.97 538.464C1507.17 519.385 1507.13 499.995 1507.1 481.245ZM1503.7 538.426C1503.63 545.066 1503.31 552.852 1501.47 560.255C1496.08 581.806 1478.56 606.474 1446.53 605.156C1432.33 604.559 1418.58 601.454 1405.28 598.452C1401.34 597.563 1397.39 596.671 1393.42 595.838C1389.46 595.007 1385.5 594.097 1381.54 593.188C1370.47 590.649 1359.03 588.024 1347.59 587.171C1322.3 585.297 1297.82 591.292 1274.14 597.09C1264.57 599.434 1254.66 601.861 1244.88 603.717C1236.33 605.342 1227.75 607.526 1219.44 609.638C1207.06 612.788 1194.25 616.048 1181.51 617.439C1168.89 618.812 1155.73 617.839 1143 616.894C1137.13 616.459 1131.05 616.009 1125.08 615.79C1106.07 615.104 1086.59 610.766 1065.56 602.534C1059.13 600.02 1052.68 597.565 1046.23 595.11C1030.24 589.027 1013.71 582.735 997.902 575.599C981.485 568.185 970.164 556.962 964.25 542.235C962.553 538.011 961.303 533.477 960.096 529.093C959.285 526.146 958.445 523.102 957.47 520.14C951.847 503.049 951.821 484.787 957.398 464.309C963.677 441.241 975.503 421.958 994.614 403.618C1023.91 375.511 1059.76 357.181 1104.23 347.585C1109.52 346.441 1114.82 345.322 1120.13 344.2C1137.96 340.431 1156.4 336.535 1174.32 331.777C1185.05 328.926 1195.65 325.022 1205.91 321.248C1210.79 319.449 1215.82 317.595 1220.82 315.872C1223.92 314.805 1227.09 313.943 1230.29 313.224C1230.45 313.187 1230.62 313.15 1230.79 313.113C1233.56 312.485 1236.39 312.179 1239.24 312.271C1243.33 312.402 1247.78 312.5 1251.42 312.623C1262.47 312.995 1273.88 313.382 1285.03 314.407C1313.35 317.013 1338.49 326.978 1359.75 344.023C1378.35 358.945 1399 373.705 1423.9 380.607C1436.49 384.101 1449.64 386.268 1462.35 388.364C1469.46 389.536 1476.81 390.75 1483.97 392.177C1496.82 394.744 1503.67 403.013 1503.77 416.094C1503.85 426.155 1503.83 436.385 1503.82 446.285C1503.81 450.677 1503.8 455.072 1503.8 459.462C1503.8 466.721 1503.81 473.982 1503.82 481.24C1503.85 499.993 1503.89 519.372 1503.7 538.426Z" fill="#50C878" fill-opacity="0.75"/>
                <path d="M1460.59 464.621C1456.22 444.581 1445.6 431.854 1428.1 425.706C1391.59 412.881 1358.6 393.751 1327.22 367.228C1310.95 353.472 1289.43 345.448 1263.78 342.787C1258.68 342.258 1253.52 342.383 1248.47 343.275C1229.88 346.565 1212.42 353.671 1195.47 360.569C1191.42 362.213 1187.38 363.859 1183.31 365.455C1163.82 373.118 1142.82 375.698 1122.51 378.197C1113 379.365 1103.18 380.574 1093.6 382.286C1053.87 389.387 1024.47 405.225 1003.72 430.704C978.443 461.727 981.81 506.033 1011.72 536.058C1044.65 569.118 1082.93 585.734 1125.93 585.732C1140.1 585.729 1154.78 583.928 1169.95 580.314C1190.19 575.493 1211.04 571.625 1231.2 567.887C1242.81 565.733 1254.82 563.505 1266.6 561.118L1267.03 561.028C1283.06 557.779 1299.64 554.417 1315.63 549.88C1341.61 542.508 1369.52 542.228 1406.14 548.953C1432.16 553.739 1451.54 541.629 1457.97 516.571C1463.18 496.249 1463.99 480.227 1460.59 464.621ZM1454.79 515.76C1448.75 539.307 1431.24 550.225 1406.74 545.732C1381.73 541.137 1348.68 537.103 1314.74 546.727C1298.87 551.229 1282.35 554.578 1266.38 557.816L1265.95 557.904C1254.2 560.287 1242.2 562.51 1230.6 564.664C1210.4 568.411 1189.51 572.283 1169.19 577.124C1109.16 591.423 1056.96 576.824 1014.05 533.742C985.343 504.931 982.068 462.47 1006.26 432.775C1026.5 407.931 1055.25 392.472 1094.18 385.515C1103.67 383.818 1113.45 382.616 1122.91 381.453C1143.42 378.932 1164.63 376.321 1184.51 368.51C1188.59 366.907 1192.65 365.256 1196.7 363.606C1213.42 356.804 1230.65 349.797 1248.83 346.545C1253.88 345.643 1259.06 345.516 1264.17 346.054C1288.99 348.664 1309.39 356.447 1325.11 369.732C1356.79 396.519 1390.12 415.842 1427.01 428.805C1443.57 434.62 1453.22 446.225 1457.39 465.323C1460.67 480.4 1459.87 495.954 1454.79 515.76Z" fill="#50C878" fill-opacity="0.75"/>
            </g>
        </g>
    </g>
    <defs>
        <filter id="filter0_ddd_303_19654" x="-10" y="-2" width="1460" height="748" filterUnits="userSpaceOnUse" color-interpolation-filters="sRGB">
            <feFlood flood-opacity="0" result="BackgroundImageFix"/>
            <feColorMatrix in="SourceAlpha" type="matrix" values="0 0 0 0 0 0 0 0 0 0 0 0 0 0 0 0 0 0 127 0" result="hardAlpha"/>
            <feOffset dy="2"/>
            <feGaussianBlur stdDeviation="2"/>
            <feColorMatrix type="matrix" values="0 0 0 0 0 0 0 0 0 0 0 0 0 0 0 0 0 0 0.02 0"/>
            <feBlend mode="normal" in2="BackgroundImageFix" result="effect1_dropShadow_303_19654"/>
            <feColorMatrix in="SourceAlpha" type="matrix" values="0 0 0 0 0 0 0 0 0 0 0 0 0 0 0 0 0 0 127 0" result="hardAlpha"/>
            <feOffset dy="8"/>
            <feGaussianBlur stdDeviation="4"/>
            <feColorMatrix type="matrix" values="0 0 0 0 0 0 0 0 0 0 0 0 0 0 0 0 0 0 0.02 0"/>
            <feBlend mode="normal" in2="effect1_dropShadow_303_19654" result="effect2_dropShadow_303_19654"/>
            <feColorMatrix in="SourceAlpha" type="matrix" values="0 0 0 0 0 0 0 0 0 0 0 0 0 0 0 0 0 0 127 0" result="hardAlpha"/>
            <feOffset dy="17"/>
            <feGaussianBlur stdDeviation="5"/>
            <feColorMatrix type="matrix" values="0 0 0 0 0 0 0 0 0 0 0 0 0 0 0 0 0 0 0.01 0"/>
            <feBlend mode="normal" in2="effect2_dropShadow_303_19654" result="effect3_dropShadow_303_19654"/>
            <feBlend mode="normal" in="SourceGraphic" in2="effect3_dropShadow_303_19654" result="shape"/>
        </filter>
        <clipPath id="clip0_303_19654">
            <path d="M0 0H1440V671C1440 697.51 1418.51 719 1392 719H48C21.4904 719 0 697.51 0 671V0Z" fill="white"/>
        </clipPath>
    </defs>
</svg>