<svg width="20" height="19" viewBox="0 0 20 19" fill="none" xmlns="http://www.w3.org/2000/svg">
    <path d="M10.7884 18.0787C10.6835 18.236 10.5202 18.3452 10.3345 18.3825C10.1488 18.4197 9.95593 18.3819 9.79821 18.2773C7.10729 16.492 3.94625 15.542 0.714286 15.5472C0.524845 15.5472 0.343164 15.4722 0.209209 15.3386C0.0752549 15.205 0 15.0238 0 14.8349C0 14.6459 0.0752549 14.4648 0.209209 14.3312C0.343164 14.1976 0.524845 14.1225 0.714286 14.1225C4.2278 14.1171 7.66412 15.1502 10.5893 17.0912C10.747 17.1959 10.8565 17.3587 10.8939 17.5439C10.9312 17.729 10.8933 17.9214 10.7884 18.0787ZM0.714286 11.2731C0.524845 11.2731 0.343164 11.3482 0.209209 11.4818C0.0752549 11.6154 0 11.7965 0 11.9855C0 12.1744 0.0752549 12.3556 0.209209 12.4892C0.343164 12.6228 0.524845 12.6978 0.714286 12.6978C5.76326 12.6862 10.6132 14.6606 14.2116 18.1927C14.278 18.2608 14.3574 18.3149 14.445 18.352C14.5327 18.389 14.6269 18.4082 14.7222 18.4084C14.8174 18.4086 14.9117 18.3898 14.9995 18.3532C15.0874 18.3165 15.167 18.2627 15.2337 18.1949C15.3003 18.1271 15.3527 18.0466 15.3878 17.9584C15.4229 17.8701 15.4399 17.7757 15.4378 17.6807C15.4358 17.5858 15.4147 17.4922 15.3758 17.4055C15.337 17.3188 15.2812 17.2407 15.2116 17.1758C11.3467 13.3817 6.13746 11.2607 0.714286 11.2731ZM19.2857 12.6978C17.8257 12.6969 16.3703 12.8609 14.9473 13.1867C15.4378 13.5577 15.914 13.9483 16.3759 14.3585C17.3378 14.2013 18.311 14.1224 19.2857 14.1225C19.4752 14.1225 19.6568 14.1976 19.7908 14.3312C19.9247 14.4648 20 14.6459 20 14.8349C20 15.0238 19.9247 15.205 19.7908 15.3386C19.6568 15.4722 19.4752 15.5472 19.2857 15.5472C18.75 15.5472 18.2205 15.573 17.692 15.6238C18.1872 16.1385 18.6616 16.6769 19.1152 17.239C19.1773 17.3116 19.2242 17.3959 19.253 17.4869C19.2819 17.5778 19.2921 17.6737 19.2831 17.7687C19.2741 17.8637 19.246 17.9559 19.2006 18.0399C19.1552 18.1238 19.0933 18.1979 19.0186 18.2575C18.944 18.3172 18.858 18.3613 18.766 18.3872C18.6739 18.4131 18.5775 18.4203 18.4826 18.4084C18.3877 18.3964 18.2961 18.3656 18.2134 18.3177C18.1306 18.2698 18.0584 18.2058 18.0009 18.1295C15.9305 15.5403 13.3006 13.4508 10.3074 12.0169C7.31419 10.5831 4.03492 9.84178 0.714286 9.84843C0.524845 9.84843 0.343164 9.77338 0.209209 9.63978C0.0752549 9.50619 0 9.32501 0 9.13608C0 8.94715 0.0752549 8.76596 0.209209 8.63237C0.343164 8.49878 0.524845 8.42373 0.714286 8.42373C2.15171 8.42397 3.58616 8.55421 5 8.81285V5.57433C5 5.46375 5.02582 5.35468 5.07541 5.25576C5.125 5.15685 5.197 5.07081 5.28571 5.00445L11 0.73036C11.1236 0.637882 11.274 0.587891 11.4286 0.587891C11.5831 0.587891 11.7335 0.637882 11.8571 0.73036L17.5714 5.00445C17.6601 5.07081 17.7321 5.15685 17.7817 5.25576C17.8313 5.35468 17.8571 5.46375 17.8571 5.57433V8.46736C18.3313 8.43976 18.8071 8.42373 19.2857 8.42373C19.4752 8.42373 19.6568 8.49878 19.7908 8.63237C19.9247 8.76596 20 8.94715 20 9.13608C20 9.32501 19.9247 9.50619 19.7908 9.63978C19.6568 9.77338 19.4752 9.84843 19.2857 9.84843C16.7207 9.84354 14.1746 10.2862 11.7625 11.1565C12.3244 11.4533 12.8738 11.7733 13.4107 12.1164C15.3184 11.5557 17.297 11.2717 19.2857 11.2731C19.4752 11.2731 19.6568 11.3482 19.7908 11.4818C19.9247 11.6154 20 11.7965 20 11.9855C20 12.1744 19.9247 12.3556 19.7908 12.4892C19.6568 12.6228 19.4752 12.6978 19.2857 12.6978ZM9.28571 6.28668H13.5714C13.7609 6.28668 13.9426 6.36173 14.0765 6.49533C14.2105 6.62892 14.2857 6.8101 14.2857 6.99903V8.95265C14.9929 8.80068 15.7071 8.68196 16.4286 8.59647V5.93051L11.4286 2.19068L6.42857 5.93051V9.11916C7.15417 9.29725 7.86845 9.51036 8.57143 9.75849V6.99903C8.57143 6.8101 8.64668 6.62892 8.78064 6.49533C8.91459 6.36173 9.09627 6.28668 9.28571 6.28668ZM10.0063 10.3177C10.9338 9.92053 11.8861 9.58354 12.8571 9.30882V7.71138H10V10.315L10.0063 10.3177Z" fill="black"/>
</svg>