<svg width="23" height="19" viewBox="0 0 23 19" fill="none" xmlns="http://www.w3.org/2000/svg">
    <path d="M22.7124 1.23904C22.7017 1.05555 22.624 0.882384 22.494 0.752416C22.364 0.622449 22.1909 0.544729 22.0074 0.534014C17.1547 0.252753 13.2583 1.72843 11.5839 4.49229C10.4776 6.31954 10.4794 8.53869 11.5689 10.6556C10.9487 11.3938 10.4955 12.2573 10.2404 13.187L8.715 11.656C9.44815 10.125 9.42002 8.52931 8.62125 7.20364C7.3837 5.16075 4.52703 4.06571 0.980334 4.27384C0.796844 4.28456 0.623677 4.36228 0.49371 4.49224C0.363742 4.62221 0.286023 4.79538 0.275307 4.97887C0.0662368 8.52556 1.16222 11.3822 3.2051 12.6198C3.87921 13.0317 4.65391 13.2498 5.44394 13.2498C6.21074 13.2403 6.96561 13.0586 7.65277 12.7182L9.99661 15.0621V17.75C9.99661 17.9489 10.0756 18.1397 10.2163 18.2803C10.3569 18.421 10.5477 18.5 10.7466 18.5C10.9456 18.5 11.1363 18.421 11.277 18.2803C11.4176 18.1397 11.4967 17.9489 11.4967 17.75V14.9852C11.4933 13.792 11.8993 12.6337 12.647 11.7038C13.6117 12.208 14.6816 12.4778 15.77 12.4913C16.8222 12.4947 17.8549 12.2073 18.7541 11.6607C21.518 9.98812 22.9974 6.09172 22.7124 1.23904ZM3.97857 11.3372C2.54039 10.4663 1.72661 8.40462 1.7463 5.74952C4.4014 5.72702 6.46304 6.54361 7.33401 7.98179C7.78871 8.73182 7.86278 9.60654 7.56464 10.5075L5.27612 8.21899C5.13432 8.08427 4.9455 8.01027 4.74992 8.01278C4.55434 8.01528 4.36748 8.09409 4.22917 8.23239C4.09087 8.3707 4.01206 8.55756 4.00956 8.75314C4.00705 8.94872 4.08105 9.13754 4.21577 9.27934L6.50429 11.5679C5.60332 11.866 4.72954 11.7919 3.97857 11.3372ZM17.9769 10.3791C16.7206 11.1394 15.244 11.1975 13.7439 10.5666L18.7776 5.53201C18.9123 5.39021 18.9863 5.20139 18.9838 5.00581C18.9813 4.81024 18.9025 4.62337 18.7642 4.48507C18.6259 4.34676 18.439 4.26795 18.2434 4.26545C18.0478 4.26295 17.859 4.33694 17.7172 4.47166L12.6826 9.49966C12.0489 7.99961 12.1061 6.52205 12.8702 5.26669C14.1771 3.11036 17.2766 1.90844 21.2452 2.00126C21.3352 5.9689 20.1351 9.07215 17.9769 10.3791Z" fill="black"/>
</svg>