<svg width="18" height="16" viewBox="0 0 18 16" fill="none" xmlns="http://www.w3.org/2000/svg">
    <path d="M15.529 5.28791C15.9649 5.28791 16.3463 5.45271 16.6732 5.78231C17.0002 6.11191 17.1636 6.49645 17.1636 6.93592V8.58394C17.1636 8.68007 17.1533 8.78307 17.1326 8.89294C17.1119 9.00281 17.0814 9.10581 17.041 9.20194L14.5891 15.0112C14.4665 15.2859 14.2622 15.5193 13.9761 15.7116C13.69 15.9039 13.3904 16 13.0771 16H6.53853C6.089 16 5.70432 15.8388 5.38448 15.5163C5.06464 15.1938 4.90444 14.8057 4.9039 14.352V5.96771C4.9039 5.74798 4.9483 5.53868 5.03712 5.33982C5.12593 5.14096 5.24499 4.96572 5.39429 4.8141L9.82823 0.364465C10.0326 0.172196 10.2745 0.055462 10.554 0.0142617C10.8335 -0.0269387 11.1024 0.0211283 11.3607 0.158463C11.619 0.295797 11.8064 0.488066 11.923 0.735268C12.0396 0.98247 12.0633 1.23654 11.9941 1.49747L11.0746 5.28791H15.529ZM1.63463 16C1.18511 16 0.800425 15.8388 0.480582 15.5163C0.160739 15.1938 0.000544877 14.8057 0 14.352V6.93592C0 6.48272 0.160194 6.09488 0.480582 5.77242C0.80097 5.44996 1.18565 5.28846 1.63463 5.28791C2.08361 5.28736 2.46857 5.44886 2.7895 5.77242C3.11043 6.09598 3.27035 6.48382 3.26926 6.93592V14.352C3.26926 14.8052 3.10934 15.1933 2.7895 15.5163C2.46966 15.8393 2.0847 16.0005 1.63463 16Z" fill="#969696"/>
</svg>