<svg width="13" height="13" viewBox="0 0 13 13" fill="none" xmlns="http://www.w3.org/2000/svg">
    <path fill-rule="evenodd" clip-rule="evenodd" d="M1.79086 2.51935C1.79074 2.56245 1.77944 2.60465 1.75823 2.64118C1.73701 2.67771 1.70674 2.7071 1.67084 2.72603C1.63493 2.74496 1.59483 2.75267 1.55507 2.74828C1.51531 2.74389 1.47749 2.72759 1.44588 2.70121L0.082247 1.55742C0.0566294 1.53584 0.0359087 1.50824 0.0216576 1.47673C0.00740662 1.44522 0 1.41062 0 1.37556C0 1.3405 0.00740662 1.3059 0.0216576 1.27439C0.0359087 1.24288 0.0566294 1.21528 0.082247 1.1937L1.44588 0.0489859C1.4776 0.0225118 1.51559 0.00618513 1.5555 0.00186807C1.59541 -0.00244898 1.63564 0.00541739 1.67161 0.02457C1.70757 0.0437225 1.73782 0.0733902 1.75891 0.110189C1.77999 0.146988 1.79106 0.189437 1.79086 0.232694V0.915828H6.92695V0.230847C6.92694 0.187587 6.93821 0.145194 6.95946 0.108506C6.98072 0.0718169 7.0111 0.0423091 7.04716 0.0233484C7.08322 0.00438773 7.12349 -0.00326242 7.16338 0.00127066C7.20328 0.00580374 7.24118 0.0223375 7.27278 0.0489859L8.63556 1.19277C8.66118 1.21436 8.6819 1.24196 8.69615 1.27347C8.7104 1.30498 8.71781 1.33958 8.71781 1.37464C8.71781 1.4097 8.7104 1.44429 8.69615 1.47581C8.6819 1.50732 8.66118 1.53491 8.63556 1.5565L7.27278 2.70121C7.24113 2.72791 7.20314 2.74445 7.16317 2.74895C7.1232 2.75345 7.08286 2.74572 7.04677 2.72665C7.01069 2.70757 6.98031 2.67793 6.95912 2.6411C6.93793 2.60428 6.92678 2.56176 6.92695 2.51842V1.83714H1.79086V2.51935ZM7.35496 4.6066H1.36285C1.24933 4.6066 1.14047 4.65523 1.0602 4.74179C0.979933 4.82836 0.934839 4.94576 0.934839 5.06818V11.5303C0.934839 11.6527 0.979933 11.7701 1.0602 11.8566C1.14047 11.9432 1.24933 11.9918 1.36285 11.9918H7.35496C7.46848 11.9918 7.57734 11.9432 7.65761 11.8566C7.73788 11.7701 7.78297 11.6527 7.78297 11.5303V5.06818C7.78297 4.94576 7.73788 4.82836 7.65761 4.74179C7.57734 4.65523 7.46848 4.6066 7.35496 4.6066ZM1.36285 3.68345C1.0223 3.68345 0.695706 3.82934 0.454905 4.08903C0.214104 4.34871 0.078823 4.70092 0.078823 5.06818V11.5303C0.078823 11.8975 0.214104 12.2497 0.454905 12.5094C0.695706 12.7691 1.0223 12.915 1.36285 12.915H7.35496C7.69551 12.915 8.0221 12.7691 8.2629 12.5094C8.50371 12.2497 8.63899 11.8975 8.63899 11.5303V5.06818C8.63899 4.70092 8.50371 4.34871 8.2629 4.08903C8.0221 3.82934 7.69551 3.68345 7.35496 3.68345H1.36285ZM11.8396 5.52976H11.207V11.0687H11.8396C11.8796 11.0688 11.9187 11.081 11.9526 11.1039C11.9865 11.1267 12.0137 11.1594 12.0313 11.1981C12.0488 11.2368 12.056 11.2801 12.0519 11.323C12.0478 11.3658 12.0327 11.4066 12.0083 11.4407L10.9477 12.9113C10.9276 12.9389 10.9021 12.9613 10.8728 12.9766C10.8436 12.992 10.8115 13 10.779 13C10.7465 13 10.7144 12.992 10.6852 12.9766C10.656 12.9613 10.6304 12.9389 10.6104 12.9113L9.54893 11.4407C9.52443 11.4066 9.5093 11.3657 9.50526 11.3227C9.50123 11.2798 9.50845 11.2365 9.5261 11.1977C9.54376 11.1589 9.57114 11.1263 9.60514 11.1035C9.63914 11.0807 9.67838 11.0686 9.71842 11.0687H10.351V5.52976H9.71842C9.67846 5.52963 9.63932 5.51744 9.60545 5.49457C9.57158 5.47169 9.54432 5.43905 9.52677 5.40032C9.50922 5.3616 9.50207 5.31835 9.50614 5.27548C9.51021 5.2326 9.52533 5.19181 9.54979 5.15772L10.6104 3.68714C10.6304 3.65951 10.656 3.63717 10.6852 3.6218C10.7144 3.60643 10.7465 3.59844 10.779 3.59844C10.8115 3.59844 10.8436 3.60643 10.8728 3.6218C10.9021 3.63717 10.9276 3.65951 10.9477 3.68714L12.0091 5.15772C12.0336 5.19187 12.0488 5.23275 12.0528 5.27571C12.0568 5.31867 12.0496 5.36198 12.0319 5.40074C12.0143 5.43949 11.9869 5.47213 11.9529 5.49493C11.9189 5.51774 11.8797 5.52981 11.8396 5.52976Z" fill="#969696"/>
</svg>