<svg width="16" height="21" viewBox="0 0 16 21" fill="none" xmlns="http://www.w3.org/2000/svg">
    <path d="M14.5455 8C14.5455 6.26404 13.8558 4.59918 12.6283 3.37166C11.4008 2.14415 9.73596 1.45455 8 1.45455C6.26404 1.45455 4.59918 2.14415 3.37166 3.37166C2.14415 4.59918 1.45455 6.26404 1.45455 8C1.45455 10.6851 3.60291 14.1847 8 18.3767C12.3971 14.1847 14.5455 10.6851 14.5455 8ZM8 20.3636C2.66618 15.5156 0 11.3935 0 8C0 5.87827 0.842855 3.84344 2.34315 2.34315C3.84344 0.842855 5.87827 0 8 0C10.1217 0 12.1566 0.842855 13.6569 2.34315C15.1571 3.84344 16 5.87827 16 8C16 11.3935 13.3338 15.5156 8 20.3636Z" fill="black"/>
    <path d="M8 10.1818C8.57865 10.1818 9.13361 9.95195 9.54278 9.54278C9.95195 9.13361 10.1818 8.57865 10.1818 8C10.1818 7.42135 9.95195 6.86639 9.54278 6.45722C9.13361 6.04805 8.57865 5.81818 8 5.81818C7.42135 5.81818 6.86639 6.04805 6.45722 6.45722C6.04805 6.86639 5.81818 7.42135 5.81818 8C5.81818 8.57865 6.04805 9.13361 6.45722 9.54278C6.86639 9.95195 7.42135 10.1818 8 10.1818ZM8 11.6364C7.03558 11.6364 6.11065 11.2532 5.4287 10.5713C4.74675 9.88935 4.36364 8.96442 4.36364 8C4.36364 7.03558 4.74675 6.11065 5.4287 5.4287C6.11065 4.74675 7.03558 4.36364 8 4.36364C8.96442 4.36364 9.88935 4.74675 10.5713 5.4287C11.2532 6.11065 11.6364 7.03558 11.6364 8C11.6364 8.96442 11.2532 9.88935 10.5713 10.5713C9.88935 11.2532 8.96442 11.6364 8 11.6364Z" fill="black"/>
</svg>