<svg width="25" height="20" viewBox="0 0 25 20" fill="none" xmlns="http://www.w3.org/2000/svg">
    <path d="M3.0001 19.2C2.3401 19.2 1.7753 18.9652 1.3057 18.4956C0.836098 18.026 0.600898 17.4608 0.600098 16.8V2.4C0.600098 1.74 0.835298 1.1752 1.3057 0.7056C1.7761 0.236 2.3409 0.0008 3.0001 0H22.2001C22.8601 0 23.4253 0.2352 23.8957 0.7056C24.3661 1.176 24.6009 1.7408 24.6001 2.4V16.8C24.6001 17.46 24.3653 18.0252 23.8957 18.4956C23.4261 18.966 22.8609 19.2008 22.2001 19.2H3.0001ZM12.6001 10.8L3.0001 4.8V16.8H22.2001V4.8L12.6001 10.8ZM12.6001 8.4L22.2001 2.4H3.0001L12.6001 8.4ZM3.0001 4.8V2.4V16.8V4.8Z" fill="#F5F5F5"/>
</svg>
