<svg width="16" height="17" viewBox="0 0 16 17" fill="none" xmlns="http://www.w3.org/2000/svg">
    <path d="M4.8 16.5C3.45185 16.5 2.31467 16.0372 1.38844 15.1116C0.462223 14.1859 -0.000592024 13.0487 5.68344e-07 11.7C5.68344e-07 11.137 0.0962969 10.5889 0.288889 10.0556C0.481482 9.52222 0.755556 9.04074 1.11111 8.61111L4.26667 4.81111L2.11111 0.5H13.8889L11.7333 4.81111L14.8889 8.61111C15.2444 9.04074 15.5185 9.52222 15.7111 10.0556C15.9037 10.5889 16 11.137 16 11.7C16 13.0481 15.5333 14.1853 14.6 15.1116C13.6667 16.0378 12.5333 16.5006 11.2 16.5H4.8ZM8 12.0556C7.51111 12.0556 7.09274 11.8816 6.74489 11.5338C6.39704 11.1859 6.22282 10.7673 6.22222 10.2778C6.22163 9.7883 6.39585 9.36993 6.74489 9.02267C7.09393 8.67541 7.5123 8.50119 8 8.5C8.4877 8.49882 8.90637 8.67304 9.256 9.02267C9.60563 9.3723 9.77956 9.79067 9.77778 10.2778C9.776 10.7649 9.60208 11.1836 9.256 11.5338C8.90993 11.884 8.49126 12.0579 8 12.0556ZM5.88889 4.05556H10.1111L11 2.27778H5L5.88889 4.05556ZM4.8 14.7222H11.2C12.0444 14.7222 12.7594 14.4298 13.3449 13.8449C13.9304 13.26 14.2228 12.545 14.2222 11.7C14.2222 11.3444 14.1591 11.0001 14.0329 10.6671C13.9067 10.3341 13.7327 10.0339 13.5111 9.76667L10.2444 5.83333H5.77778L2.48889 9.74444C2.26667 10.0111 2.09274 10.3148 1.96711 10.6556C1.84148 10.9963 1.77837 11.3444 1.77778 11.7C1.77778 12.5444 2.07052 13.2594 2.656 13.8449C3.24148 14.4304 3.95615 14.7228 4.8 14.7222Z" fill="black"/>
</svg>