<svg width="22" height="24" viewBox="0 0 22 24" fill="none" xmlns="http://www.w3.org/2000/svg">
    <path d="M19.2 13.9032V9.6C19.2 5.7396 16.578 2.4876 13.026 1.5096C12.6744 0.624 11.8152 0 10.8 0C9.7848 0 8.9256 0.624 8.574 1.5096C5.022 2.4888 2.4 5.7396 2.4 9.6V13.9032L0.3516 15.9516C0.126541 16.1766 6.79649e-05 16.4818 0 16.8V19.2C0 19.5183 0.126428 19.8235 0.351472 20.0485C0.576515 20.2736 0.88174 20.4 1.2 20.4H20.4C20.7183 20.4 21.0235 20.2736 21.2485 20.0485C21.4736 19.8235 21.6 19.5183 21.6 19.2V16.8C21.5999 16.4818 21.4735 16.1766 21.2484 15.9516L19.2 13.9032ZM19.2 18H2.4V17.2968L4.4484 15.2484C4.67346 15.0234 4.79993 14.7182 4.8 14.4V9.6C4.8 6.2916 7.4916 3.6 10.8 3.6C14.1084 3.6 16.8 6.2916 16.8 9.6V14.4C16.8 14.7192 16.926 15.024 17.1516 15.2484L19.2 17.2968V18ZM10.8 24C11.5432 24.0009 12.2681 23.7703 12.8742 23.3402C13.4802 22.9101 13.9372 22.3018 14.1816 21.6H7.4184C7.66279 22.3018 8.11977 22.9101 8.72581 23.3402C9.33185 23.7703 10.0568 24.0009 10.8 24Z" fill="#F5F5F5"/>
</svg>