<svg width="64" height="64" viewBox="0 0 64 64" fill="none" xmlns="http://www.w3.org/2000/svg">
    <circle cx="32" cy="32" r="32" fill="#F3FBF6"/>
    <path d="M42.6 44C39.8222 44 37.0778 43.3947 34.3667 42.184C31.6556 40.9733 29.1889 39.2564 26.9667 37.0333C24.7444 34.8102 23.028 32.3436 21.8173 29.6333C20.6067 26.9231 20.0009 24.1787 20 21.4C20 21 20.1333 20.6667 20.4 20.4C20.6667 20.1333 21 20 21.4 20H26.8C27.1111 20 27.3889 20.1058 27.6333 20.3173C27.8778 20.5289 28.0222 20.7787 28.0667 21.0667L28.9333 25.7333C28.9778 26.0889 28.9667 26.3889 28.9 26.6333C28.8333 26.8778 28.7111 27.0889 28.5333 27.2667L25.3 30.5333C25.7444 31.3556 26.272 32.1498 26.8827 32.916C27.4933 33.6822 28.1658 34.4213 28.9 35.1333C29.5889 35.8222 30.3111 36.4613 31.0667 37.0507C31.8222 37.64 32.6222 38.1787 33.4667 38.6667L36.6 35.5333C36.8 35.3333 37.0613 35.1836 37.384 35.084C37.7067 34.9844 38.0231 34.9564 38.3333 35L42.9333 35.9333C43.2444 36.0222 43.5 36.1836 43.7 36.4173C43.9 36.6511 44 36.912 44 37.2V42.6C44 43 43.8667 43.3333 43.6 43.6C43.3333 43.8667 43 44 42.6 44Z" fill="#50C878"/>
</svg>