<svg width="108" height="108" viewBox="0 0 108 108" fill="none" xmlns="http://www.w3.org/2000/svg">
    <rect width="108" height="108" rx="24" fill="#73D393"/>
    <path fill-rule="evenodd" clip-rule="evenodd" d="M38.5371 40.06C38.5367 40.215 38.4954 40.3667 38.418 40.4981C38.3406 40.6295 38.2301 40.7352 38.099 40.8032C37.968 40.8713 37.8216 40.899 37.6764 40.8832C37.5313 40.8675 37.3932 40.8088 37.2779 40.714L32.3002 36.6007C32.2067 36.5231 32.1311 36.4239 32.0791 36.3105C32.027 36.1972 32 36.0728 32 35.9467C32 35.8206 32.027 35.6962 32.0791 35.5829C32.1311 35.4696 32.2067 35.3703 32.3002 35.2927L37.2779 31.1762C37.3937 31.081 37.5323 31.0222 37.678 31.0067C37.8237 30.9912 37.9705 31.0195 38.1018 31.0884C38.2331 31.1572 38.3435 31.2639 38.4205 31.3963C38.4975 31.5286 38.5379 31.6812 38.5371 31.8368V34.2935H57.2853V31.8302C57.2853 31.6746 57.3264 31.5221 57.404 31.3902C57.4816 31.2583 57.5925 31.1522 57.7241 31.084C57.8557 31.0158 58.0027 30.9883 58.1483 31.0046C58.294 31.0209 58.4323 31.0803 58.5477 31.1762L63.5222 35.2894C63.6157 35.367 63.6913 35.4663 63.7434 35.5796C63.7954 35.6929 63.8224 35.8173 63.8224 35.9434C63.8224 36.0695 63.7954 36.1939 63.7434 36.3072C63.6913 36.4205 63.6157 36.5198 63.5222 36.5974L58.5477 40.714C58.4321 40.81 58.2935 40.8695 58.1476 40.8856C58.0016 40.9018 57.8544 40.874 57.7227 40.8054C57.591 40.7369 57.4801 40.6302 57.4027 40.4978C57.3254 40.3654 57.2847 40.2125 57.2853 40.0566V37.6066H38.5371V40.06ZM58.8476 47.566H36.9748C36.5604 47.566 36.163 47.7409 35.87 48.0522C35.577 48.3635 35.4124 48.7857 35.4124 49.226V72.4646C35.4124 72.9048 35.577 73.327 35.87 73.6383C36.163 73.9496 36.5604 74.1245 36.9748 74.1245H58.8476C59.262 74.1245 59.6594 73.9496 59.9524 73.6383C60.2454 73.327 60.41 72.9048 60.41 72.4646V49.226C60.41 48.7857 60.2454 48.3635 59.9524 48.0522C59.6594 47.7409 59.262 47.566 58.8476 47.566ZM36.9748 44.2462C35.7317 44.2462 34.5395 44.7709 33.6605 45.7048C32.7815 46.6386 32.2877 47.9052 32.2877 49.226V72.4646C32.2877 73.7853 32.7815 75.0519 33.6605 75.9858C34.5395 76.9197 35.7317 77.4443 36.9748 77.4443H58.8476C60.0907 77.4443 61.2829 76.9197 62.1619 75.9858C63.0409 75.0519 63.5347 73.7853 63.5347 72.4646V49.226C63.5347 47.9052 63.0409 46.6386 62.1619 45.7048C61.2829 44.7709 60.0907 44.2462 58.8476 44.2462H36.9748ZM75.2179 50.8859H72.9088V70.8047H75.2179C75.3638 70.8051 75.5067 70.849 75.6303 70.9312C75.754 71.0135 75.8534 71.1309 75.9175 71.2702C75.9816 71.4094 76.0077 71.5649 75.9928 71.7191C75.978 71.8733 75.9228 72.02 75.8335 72.1426L71.962 77.431C71.8889 77.5304 71.7955 77.6107 71.6889 77.666C71.5822 77.7213 71.4651 77.75 71.3464 77.75C71.2278 77.75 71.1107 77.7213 71.004 77.666C70.8973 77.6107 70.8039 77.5304 70.7309 77.431L66.8562 72.1426C66.7668 72.0198 66.7116 71.8728 66.6968 71.7183C66.6821 71.5638 66.7085 71.408 66.7729 71.2687C66.8374 71.1293 66.9373 71.0119 67.0614 70.9299C67.1855 70.8479 67.3288 70.8045 67.4749 70.8047H69.7841V50.8859H67.4749C67.329 50.8854 67.1862 50.8416 67.0626 50.7593C66.9389 50.677 66.8394 50.5596 66.7754 50.4204C66.7113 50.2811 66.6852 50.1256 66.7 49.9714C66.7149 49.8172 66.7701 49.6706 66.8594 49.548L70.7309 44.2595C70.8039 44.1602 70.8973 44.0798 71.004 44.0245C71.1107 43.9693 71.2278 43.9405 71.3464 43.9405C71.4651 43.9405 71.5822 43.9693 71.6889 44.0245C71.7955 44.0798 71.8889 44.1602 71.962 44.2595L75.8366 49.548C75.9261 49.6708 75.9813 49.8178 75.996 49.9723C76.0107 50.1267 75.9844 50.2825 75.9199 50.4219C75.8555 50.5612 75.7555 50.6786 75.6315 50.7606C75.5074 50.8426 75.3641 50.886 75.2179 50.8859Z" fill="#F5F5F5"/>
</svg>