<svg width="25" height="16" viewBox="0 0 25 16" fill="none" xmlns="http://www.w3.org/2000/svg">
    <path d="M12.5322 4.8C13.3809 4.8 14.1948 5.13714 14.7949 5.73726C15.395 6.33737 15.7322 7.15131 15.7322 8C15.7322 8.84869 15.395 9.66263 14.7949 10.2627C14.1948 10.8629 13.3809 11.2 12.5322 11.2C11.6835 11.2 10.8695 10.8629 10.2694 10.2627C9.6693 9.66263 9.33216 8.84869 9.33216 8C9.33216 7.15131 9.6693 6.33737 10.2694 5.73726C10.8695 5.13714 11.6835 4.8 12.5322 4.8ZM12.5322 0C17.8655 0 22.4202 3.31733 24.2655 8C22.4202 12.6827 17.8655 16 12.5322 16C7.19883 16 2.64416 12.6827 0.798828 8C2.64416 3.31733 7.19883 0 12.5322 0ZM3.12416 8C3.9863 9.76033 5.32502 11.2435 6.98814 12.2808C8.65126 13.3181 10.5721 13.8681 12.5322 13.8681C14.4923 13.8681 16.4131 13.3181 18.0762 12.2808C19.7393 11.2435 21.078 9.76033 21.9402 8C21.078 6.23967 19.7393 4.75654 18.0762 3.7192C16.4131 2.68185 14.4923 2.13193 12.5322 2.13193C10.5721 2.13193 8.65126 2.68185 6.98814 3.7192C5.32502 4.75654 3.9863 6.23967 3.12416 8Z" fill="#969696"/>
</svg>