<svg width="48" height="39" viewBox="0 0 48 39" fill="none" xmlns="http://www.w3.org/2000/svg">
    <path d="M48 4.58891C46.2333 5.39197 44.3289 5.91969 42.3556 6.17208C44.3748 4.95602 45.935 3.02868 46.6692 0.711281C44.7648 1.85851 42.6539 2.66157 40.4283 3.12046C38.6157 1.14723 36.0688 0 33.1778 0C27.7859 0 23.3805 4.40535 23.3805 9.84321C23.3805 10.6233 23.4723 11.3805 23.6329 12.0918C15.4646 11.6788 8.19121 7.75526 3.3499 1.81262C2.50096 3.25813 2.01912 4.95602 2.01912 6.7457C2.01912 10.1644 3.73996 13.1931 6.40153 14.914C4.77247 14.914 3.25813 14.4551 1.92734 13.7667V13.8356C1.92734 18.608 5.32314 22.6004 9.82027 23.4952C8.37669 23.892 6.86051 23.947 5.39197 23.6558C6.01516 25.6118 7.23565 27.3233 8.88187 28.5497C10.5281 29.7762 12.5173 30.4559 14.5698 30.4933C11.0906 33.2478 6.77784 34.7367 2.34034 34.7151C1.56023 34.7151 0.780115 34.6692 0 34.5774C4.35947 37.3767 9.54493 39.0057 15.0975 39.0057C33.1778 39.0057 43.1128 24 43.1128 10.9904C43.1128 10.5545 43.1128 10.1415 43.0899 9.70554C45.0172 8.32887 46.6692 6.58509 48 4.58891Z" fill="white"/>
</svg>