<svg width="32" height="18" viewBox="0 0 32 18" fill="none" xmlns="http://www.w3.org/2000/svg">
    <path fill-rule="evenodd" clip-rule="evenodd" d="M17.7288 17.2791C17.2781 17.7182 16.6669 17.9649 16.0295 17.9649C15.3922 17.9649 14.781 17.7182 14.3303 17.2791L0.733756 4.02746C0.504199 3.81137 0.321096 3.55288 0.195131 3.26709C0.0691672 2.98129 0.00286393 2.67391 9.07469e-05 2.36287C-0.00268243 2.05183 0.0581305 1.74337 0.17898 1.45549C0.299829 1.1676 0.478295 0.906051 0.703965 0.686106C0.929635 0.466161 1.19799 0.292222 1.49337 0.174438C1.78875 0.0566547 2.10524 -0.00261438 2.42437 8.84464e-05C2.7435 0.00279128 3.05889 0.0674125 3.35212 0.190181C3.64536 0.31295 3.91057 0.491407 4.13228 0.715141L16.0295 12.3106L27.9268 0.715141C28.3801 0.288433 28.9872 0.0523213 29.6174 0.0576585C30.2476 0.0629957 30.8504 0.309355 31.296 0.743676C31.7417 1.178 31.9944 1.76553 31.9999 2.37973C32.0054 2.99393 31.7631 3.58565 31.3253 4.02746L17.7288 17.2791Z" fill="white"/>
</svg>