<svg width="48" height="48" viewBox="0 0 48 48" fill="none" xmlns="http://www.w3.org/2000/svg">
    <path d="M24 0C10.8 0 0 10.776 0 24.048C0 36.048 8.78399 46.0079 20.256 47.8079V31.008H14.16V24.048H20.256V18.744C20.256 12.72 23.832 9.40799 29.328 9.40799C31.944 9.40799 34.68 9.86399 34.68 9.86399V15.792H31.656C28.68 15.792 27.744 17.64 27.744 19.536V24.048H34.416L33.336 31.008H27.744V47.8079C33.3994 46.9148 38.5492 44.0292 42.2638 39.6721C45.9783 35.315 48.0128 29.7735 47.9999 24.048C47.9999 10.776 37.2 0 24 0Z" fill="white"/>
</svg>