<svg width="15" height="10" viewBox="0 0 15 10" fill="none" xmlns="http://www.w3.org/2000/svg">
    <path d="M7.41244 3C7.94287 3 8.45158 3.21071 8.82665 3.58579C9.20172 3.96086 9.41244 4.46957 9.41244 5C9.41244 5.53043 9.20172 6.03914 8.82665 6.41421C8.45158 6.78929 7.94287 7 7.41244 7C6.882 7 6.37329 6.78929 5.99822 6.41421C5.62315 6.03914 5.41244 5.53043 5.41244 5C5.41244 4.46957 5.62315 3.96086 5.99822 3.58579C6.37329 3.21071 6.882 3 7.41244 3ZM7.41244 0C10.7458 0 13.5924 2.07333 14.7458 5C13.5924 7.92667 10.7458 10 7.41244 10C4.0791 10 1.23243 7.92667 0.0791016 5C1.23243 2.07333 4.0791 0 7.41244 0ZM1.53244 5C2.07127 6.1002 2.90797 7.02717 3.94742 7.6755C4.98687 8.32384 6.18737 8.66755 7.41244 8.66755C8.63751 8.66755 9.838 8.32384 10.8774 7.6755C11.9169 7.02717 12.7536 6.1002 13.2924 5C12.7536 3.8998 11.9169 2.97283 10.8774 2.3245C9.838 1.67616 8.63751 1.33245 7.41244 1.33245C6.18737 1.33245 4.98687 1.67616 3.94742 2.3245C2.90797 2.97283 2.07127 3.8998 1.53244 5Z" fill="white"/>
</svg>