<svg width="14" height="12" viewBox="0 0 14 12" fill="none" xmlns="http://www.w3.org/2000/svg">
    <path fill-rule="evenodd" clip-rule="evenodd" d="M1.30105 0.554955C1.65638 0.199623 2.13831 0 2.64083 0H11.4829C11.9854 0 12.4674 0.199623 12.8227 0.554955C13.178 0.910287 13.3777 1.39222 13.3777 1.89474V8.21052C13.3777 8.71304 13.178 9.19497 12.8227 9.5503C12.4674 9.90564 11.9854 10.1053 11.4829 10.1053H4.32525C4.1886 10.1053 4.05563 10.1496 3.9463 10.2316L3.94628 10.2316L1.7566 11.8737C1.56521 12.0172 1.30917 12.0403 1.09521 11.9333C0.881247 11.8263 0.746094 11.6076 0.746094 11.3684V1.89474C0.746094 1.39222 0.945717 0.910287 1.30105 0.554955ZM2.64083 1.26316C2.47332 1.26316 2.31268 1.3297 2.19424 1.44814C2.07579 1.56659 2.00925 1.72723 2.00925 1.89474V10.1053L3.18841 9.22105C3.18842 9.22104 3.18842 9.22104 3.18843 9.22103C3.5164 8.97506 3.9153 8.8421 4.32525 8.8421H11.4829C11.6504 8.8421 11.8111 8.77556 11.9295 8.65712C12.048 8.53867 12.1145 8.37803 12.1145 8.21052V1.89474C12.1145 1.72723 12.048 1.56659 11.9295 1.44814C11.8111 1.3297 11.6504 1.26316 11.4829 1.26316H2.64083Z" fill="white"/>
</svg>