<svg width="14" height="12" viewBox="0 0 14 12" fill="none" xmlns="http://www.w3.org/2000/svg">
    <path d="M6.60491 10.1689L6.53951 10.2343L6.46758 10.1689C3.36131 7.35041 1.3079 5.48665 1.3079 3.59673C1.3079 2.28883 2.28883 1.3079 3.59673 1.3079C4.60382 1.3079 5.58474 1.96185 5.93134 2.85123H7.14768C7.49428 1.96185 8.4752 1.3079 9.48229 1.3079C10.7902 1.3079 11.7711 2.28883 11.7711 3.59673C11.7711 5.48665 9.71771 7.35041 6.60491 10.1689ZM9.48229 0C8.34441 0 7.25232 0.5297 6.53951 1.36022C5.8267 0.5297 4.73461 0 3.59673 0C1.58256 0 0 1.57602 0 3.59673C0 6.06213 2.22343 8.08283 5.59128 11.1368L6.53951 12L7.48774 11.1368C10.8556 8.08283 13.079 6.06213 13.079 3.59673C13.079 1.57602 11.4965 0 9.48229 0Z" fill="white"/>
</svg>